<?xml version="1.0" encoding="UTF-8"?>
<!-- Created with Inkscape (http://www.inkscape.org/) -->
<svg width="236.58" height="111.49" version="1.1" viewBox="0 0 236.58 111.49" xml:space="preserve" xmlns="http://www.w3.org/2000/svg" xmlns:cc="http://creativecommons.org/ns#" xmlns:dc="http://purl.org/dc/elements/1.1/" xmlns:rdf="http://www.w3.org/1999/02/22-rdf-syntax-ns#"><metadata><rdf:RDF><cc:Work rdf:about=""><dc:format>image/svg+xml</dc:format><dc:type rdf:resource="http://purl.org/dc/dcmitype/StillImage"/><dc:title/></cc:Work></rdf:RDF></metadata><g transform="matrix(1.3333 0 0 -1.3333 -832.62 1354.3)"><g transform="scale(.1)"><path d="m7979.6 9964h-451.97v77.61h451.97zm-962.83 0v77.61h465.37v-77.61zm-491.36 0v77.61h451.98v-77.61zm1493.6 193.31h-1539.1v-629.42c-35.89 17.85-90.72 14.61-142.38-12.25-71.77-37.32-110.03-105.86-85.48-153.08 24.56-47.23 102.64-55.27 174.41-17.95 59.9 31.14 99.21 84.17 98.94 128.11v466.03h451.98v-409.56c-35.89 17.84-90.72 14.6-142.38-12.26-71.77-37.32-110.04-105.85-85.48-153.08s102.64-55.27 174.41-17.95c59.9 31.14 96.3 84.01 92.48 128.11h0.35v464.74h465.37v-410.86c-35.89 17.85-90.72 14.61-142.38-12.25-71.77-37.32-110.04-105.86-85.48-153.08 24.56-47.23 102.64-55.27 174.41-17.95 59.9 31.14 99.21 84.17 98.94 128.11v466.03h451.97v-409.56c-35.88 17.84-90.71 14.6-142.38-12.26-71.76-37.32-110.03-105.85-85.47-153.08s102.64-55.27 174.41-17.95c59.89 31.14 96.3 84.01 92.47 128.11h0.35v683.3"/></g></g></svg>
