<?xml version="1.0" encoding="UTF-8"?>
<!-- Created with Inkscape (http://www.inkscape.org/) -->
<svg width="102.95" height="111.49" version="1.1" viewBox="0 0 102.95 111.49" xml:space="preserve" xmlns="http://www.w3.org/2000/svg" xmlns:cc="http://creativecommons.org/ns#" xmlns:dc="http://purl.org/dc/elements/1.1/" xmlns:rdf="http://www.w3.org/1999/02/22-rdf-syntax-ns#"><metadata><rdf:RDF><cc:Work rdf:about=""><dc:format>image/svg+xml</dc:format><dc:type rdf:resource="http://purl.org/dc/dcmitype/StillImage"/><dc:title/></cc:Work></rdf:RDF></metadata><g transform="matrix(1.3333 0 0 -1.3333 -581.53 1354.3)"><g transform="scale(.1)"><path d="m5133.6 10157h-536.84v-629.42c-35.89 17.85-90.72 14.61-142.39-12.25-71.76-37.32-110.03-105.86-85.47-153.08 24.56-47.23 102.64-55.27 174.41-17.95 59.9 31.14 99.21 84.17 98.94 128.11v568.89h451.97v-512.42c-35.88 17.84-90.71 14.6-142.38-12.26-71.76-37.32-110.03-105.85-85.47-153.08s102.64-55.27 174.41-17.95c59.89 31.14 96.3 84.01 92.47 128.11h0.35v683.3"/></g></g></svg>
