<?xml version="1.0" encoding="UTF-8" standalone="no"?>
<!-- Created with Inkscape (http://www.inkscape.org/) -->

<svg xmlns:dc="http://purl.org/dc/elements/1.1/" xmlns:cc="http://creativecommons.org/ns#" xmlns:rdf="http://www.w3.org/1999/02/22-rdf-syntax-ns#"
    xmlns="http://www.w3.org/2000/svg" xmlns:sodipodi="http://sodipodi.sourceforge.net/DTD/sodipodi-0.dtd"
    xmlns:inkscape="http://www.inkscape.org/namespaces/inkscape" version="1.1" id="svg2" xml:space="preserve"
    width="1461.3333" height="1040" viewBox="0 0 1461.3333 1040" sodipodi:docname="musical notes.ai.svg"
    inkscape:version="0.92.4 (5da689c313, 2019-01-14)"><metadata
     id="metadata8"><rdf:RDF><cc:Work
         rdf:about=""><dc:format>image/svg+xml</dc:format><dc:type
           rdf:resource="http://purl.org/dc/dcmitype/StillImage" /><dc:title></dc:title></cc:Work></rdf:RDF></metadata><defs
     id="defs6"><clipPath
       clipPathUnits="userSpaceOnUse"
       id="clipPath18"><path
         d="M 0,780 H 1096 V 0 H 0 Z"
         id="path16"
         inkscape:connector-curvature="0" /></clipPath></defs><sodipodi:namedview
     pagecolor="#ffffff"
     bordercolor="#666666"
     borderopacity="1"
     objecttolerance="10"
     gridtolerance="10"
     guidetolerance="10"
     inkscape:pageopacity="0"
     inkscape:pageshadow="2"
     inkscape:window-width="1920"
     inkscape:window-height="1154"
     id="namedview4"
     showgrid="false"
     inkscape:zoom="1.1770074"
     inkscape:cx="730.66663"
     inkscape:cy="520"
     inkscape:window-x="1280"
     inkscape:window-y="0"
     inkscape:window-maximized="1"
     inkscape:current-layer="g14" /><g
     id="g10"
     inkscape:groupmode="layer"
     inkscape:label="musical notes"
     transform="matrix(1.3333333,0,0,-1.3333333,0,1040)"><g
       clip-path="url(#clipPath18)"
       id="g14"><g
         transform="translate(188.8242,77.0244)"
         id="g20"><path
           inkscape:connector-curvature="0"
           id="path22"
           style="fill:#231f20;fill-opacity:1;fill-rule:nonzero;stroke:none"
           d="M 0,0 C -1.739,10.818 -3.778,23.54 -5.855,36.233 8.66,34.966 16.774,8.424 0,0 m -5.731,-1.95 c -31.041,-6.217 -32.831,25.405 -27.75,42.601 2.941,9.953 11.222,17.422 19.36,27.023 0.957,-5.7 1.998,-12.132 3.073,-18.921 -20.415,-6.926 -20.584,-39.804 -1.719,-42.886 -8.953,7.016 -10.958,25.509 1.563,29.704 0.724,0.242 1.434,0.4 2.138,0.519 1.99,-12.835 3.993,-26.067 5.718,-37.444 -0.757,-0.229 -1.55,-0.429 -2.383,-0.596 m 0.067,131.321 c 1.808,0 5.404,-2.69 5.404,-9.38 0,-10.942 -6.402,-21.928 -14.24,-32.892 -3.961,28.395 4.787,42.272 8.836,42.272 m -2.022,-79.73 c -0.125,-0.023 -0.241,-0.06 -0.366,-0.084 -1.24,7.447 -2.456,14.621 -3.595,21.121 5.039,6.311 9.805,13.638 12.951,23.127 9.095,27.436 -4.366,51.981 -7.817,51.981 -11.264,0 -16.324,-29.791 -10.458,-62.083 -10.758,-14.586 -23.153,-29.12 -25.499,-43.443 -4.1,-25.025 9.294,-51.166 38.302,-45.491 0.462,0.09 0.916,0.192 1.362,0.304 1.626,-10.716 2.958,-19.425 3.719,-23.99 1.867,-11.204 -3.373,-20.404 -12.335,-20.879 -3.248,-0.173 -6.308,1.159 -8.379,4.463 4.806,-1.823 9.82,2.279 10.245,11.335 0.277,5.886 -1.565,11.799 -9.073,12.695 -5.822,0.696 -12.32,-4.999 -11.334,-15.205 0.813,-8.417 5.862,-16.641 17.978,-16.937 12.115,-0.296 19.44,9.822 16.415,26.482 -0.698,3.845 -2.075,12.327 -3.817,23.156 25.536,10.403 18.24,58.214 -8.299,53.448" /></g><g
         transform="translate(179.5928,698.6123)"
         id="g24"><path
           inkscape:connector-curvature="0"
           id="path26"
           style="fill:#231f20;fill-opacity:1;fill-rule:nonzero;stroke:none"
           d="m 0,0 v -93.02 c -3.812,3.666 -11.188,3.758 -17.688,-0.102 -7.386,-4.389 -10.836,-12.216 -7.707,-17.483 3.13,-5.268 11.654,-5.98 19.04,-1.592 5.517,3.277 8.834,8.473 8.859,13.088 H 2.506 V 0 Z" /></g><g
         transform="translate(282.2197,658.6812)"
         id="g28"><path
           inkscape:connector-curvature="0"
           id="path30"
           style="fill:#231f20;fill-opacity:1;fill-rule:nonzero;stroke:none"
           d="m 0,0 c -5.705,10.718 -18.765,23.164 -18.765,39.931 h -2.506 v -93.019 c -3.812,3.665 -11.188,3.757 -17.687,-0.103 -7.387,-4.389 -10.837,-12.216 -7.708,-17.483 3.13,-5.268 11.654,-5.98 19.04,-1.592 5.517,3.277 8.834,8.473 8.859,13.088 h 0.002 V 8.297 c 0,0 7.702,0 13.925,-9.68 10.087,-15.69 7.898,-31.794 1.382,-46.328 C 7.432,-32.5 5.704,-10.718 0,0" /></g><g
         transform="translate(363.7646,644.2588)"
         id="g32"><path
           inkscape:connector-curvature="0"
           id="path34"
           style="fill:#231f20;fill-opacity:1;fill-rule:nonzero;stroke:none"
           d="m 0,0 c -7.502,9.509 -16.727,18.397 -18.454,32.37 1.326,-0.687 6.813,-3.782 13.615,-11.109 C 2.025,13.866 5.048,5.687 2.597,-3.794 1.797,-2.441 0.924,-1.171 0,0 M 3.216,-4.882 C 8.606,6.115 4.383,16.586 0,23.076 c -9.031,13.37 -18.765,14.51 -18.765,31.278 h -2.505 v -93.02 c -3.812,3.666 -11.189,3.758 -17.688,-0.103 -7.386,-4.388 -10.836,-12.215 -7.707,-17.483 3.13,-5.268 11.654,-5.98 19.04,-1.591 5.517,3.277 8.833,8.472 8.859,13.087 h 10e-4 V 5.413 c 0,0 6.096,-0.236 13.926,-8.67 10.681,-11.508 12.127,-22.931 5.611,-37.466 9.199,12.849 7.672,26.245 2.444,35.841" /></g><g
         transform="translate(342.5273,307.9321)"
         id="g36"><path
           inkscape:connector-curvature="0"
           id="path38"
           style="fill:#231f20;fill-opacity:1;fill-rule:nonzero;stroke:none"
           d="m 0,0 c 0,-16.767 13.061,-29.213 18.765,-39.931 5.704,-10.717 7.432,-32.499 -3.458,-47.712 6.516,14.535 8.704,30.64 -1.382,46.329 C 7.702,-31.634 0,-31.634 0,-31.634 Z" /></g><g
         transform="translate(437.1968,257.2954)"
         id="g40"><path
           inkscape:connector-curvature="0"
           id="path42"
           style="fill:#231f20;fill-opacity:1;fill-rule:nonzero;stroke:none"
           d="m 0,0 c -7.503,9.509 -16.728,18.397 -18.454,32.371 1.326,-0.688 6.812,-3.783 13.614,-11.11 C 2.024,13.866 5.047,5.687 2.597,-3.793 1.796,-2.441 0.924,-1.171 0,0 M 3.215,-4.882 C 8.605,6.115 4.383,16.587 0,23.076 -9.031,36.447 -18.765,37.587 -18.765,54.354 V 5.413 c 0,0 6.095,-0.235 13.925,-8.67 10.682,-11.508 12.127,-22.931 5.611,-37.466 9.199,12.85 7.673,26.245 2.444,35.841" /></g><g
         transform="translate(497.2334,220.2896)"
         id="g44"><path
           inkscape:connector-curvature="0"
           id="path46"
           style="fill:#231f20;fill-opacity:1;fill-rule:nonzero;stroke:none"
           d="m 0,0 c 0,16.767 13.061,29.214 18.765,39.931 5.704,10.718 7.432,32.5 -3.458,47.712 C 21.823,73.108 24.011,57.004 13.925,41.314 7.702,31.634 0,31.634 0,31.634 Z" /></g><g
         transform="translate(587.0625,249.665)"
         id="g48"><path
           inkscape:connector-curvature="0"
           id="path50"
           style="fill:#231f20;fill-opacity:1;fill-rule:nonzero;stroke:none"
           d="m 0,0 c -6.801,-7.327 -12.288,-10.422 -13.613,-11.109 1.726,13.973 10.95,22.861 18.453,32.37 0.924,1.172 1.797,2.441 2.597,3.793 C 9.887,15.575 6.865,7.395 0,0 M 5.611,61.984 C 12.127,47.45 10.683,36.026 0,24.519 c -7.83,-8.435 -13.925,-8.67 -13.925,-8.67 v -48.941 c 0,16.767 9.734,17.907 18.765,31.278 4.383,6.489 8.605,16.96 3.216,27.957 5.228,9.596 6.754,22.992 -2.445,35.841" /></g><g
         transform="translate(449.9326,638.0176)"
         id="g52"><path
           inkscape:connector-curvature="0"
           id="path54"
           style="fill:#231f20;fill-opacity:1;fill-rule:nonzero;stroke:none"
           d="m 0,0 c -2.144,3.998 -4.889,7.324 -7.564,9.773 -8.63,7.9 -14.127,16.927 -14.127,25.928 v 6.578 c 0,-3.606 1.442,-5.481 12.083,-15.457 C 0.605,17.245 0.454,7.565 0,0 m -21.691,62.037 c 0,-5.77 3.846,-9.374 12.083,-16.141 8.221,-6.755 12.021,-17 10.28,-29.056 -1.63,5.21 -4.523,10.091 -7.7,13.948 -6.731,8.173 -14.663,18.269 -14.663,23.797 z M 0.188,-0.362 C 2.69,5.185 2.435,11.192 0.678,16.819 5.457,29.955 -0.065,44.259 -7.028,52.182 -14,60.114 -21.691,66.124 -21.691,75.017 h -2.506 V -32.425 c -3.811,3.666 -11.188,3.758 -17.688,-0.102 -7.386,-4.389 -10.836,-12.216 -7.707,-17.484 3.13,-5.267 11.654,-5.98 19.04,-1.591 5.517,3.277 8.834,8.473 8.859,13.087 h 0.002 v 56.698 c 0.015,-4.116 0.564,-3.664 11.383,-12.519 11.835,-9.686 15.268,-22.602 8.224,-40.145 8.525,13.168 6.899,25.252 2.272,34.119" /></g><g
         transform="translate(691.5029,558.9912)"
         id="g56"><path
           inkscape:connector-curvature="0"
           id="path58"
           style="fill:#231f20;fill-opacity:1;fill-rule:nonzero;stroke:none"
           d="m 0,0 c 0.014,1.576 -0.352,3.086 -1.149,4.429 -3.13,5.268 -11.654,5.98 -19.04,1.592 -7.386,-4.388 -10.836,-12.214 -7.708,-17.482 3.129,-5.268 11.655,-5.98 19.041,-1.593 2.682,1.595 4.837,3.644 6.355,5.858 V -99.109 H 0.005 V 0 Z" /></g><g
         transform="translate(777.1851,547.5244)"
         id="g60"><path
           inkscape:connector-curvature="0"
           id="path62"
           style="fill:#231f20;fill-opacity:1;fill-rule:nonzero;stroke:none"
           d="m 0,0 c 6.515,-14.535 8.704,-30.639 -1.382,-46.328 -6.224,-9.68 -13.925,-9.68 -13.925,-9.68 v 67.475 h -0.005 c 0.013,1.576 -0.352,3.086 -1.149,4.429 -3.13,5.268 -11.654,5.98 -19.04,1.591 -7.386,-4.387 -10.836,-12.214 -7.708,-17.481 3.129,-5.268 11.654,-5.981 19.041,-1.593 2.682,1.594 4.837,3.644 6.355,5.858 v -91.914 h 2.506 c 0,16.768 13.06,29.214 18.765,39.932 C 9.162,-36.994 10.89,-15.212 0,0" /></g><g
         transform="translate(856.3613,492.9741)"
         id="g64"><path
           inkscape:connector-curvature="0"
           id="path66"
           style="fill:#231f20;fill-opacity:1;fill-rule:nonzero;stroke:none"
           d="M 0,0 C -6.802,-7.327 -12.288,-10.422 -13.614,-11.109 -11.888,2.864 -2.663,11.752 4.84,21.262 5.764,22.433 6.636,23.703 7.437,25.055 9.887,15.575 6.865,7.396 0,0 M 5.611,61.984 C 12.126,47.45 10.682,36.026 0,24.519 c -7.83,-8.435 -13.925,-8.67 -13.925,-8.67 v 50.168 h -0.005 c 0.013,1.576 -0.351,3.086 -1.149,4.429 -3.129,5.268 -11.653,5.98 -19.04,1.592 -7.385,-4.388 -10.836,-12.214 -7.708,-17.482 3.13,-5.267 11.655,-5.98 19.041,-1.593 2.682,1.595 4.837,3.644 6.355,5.858 v -91.913 h 2.506 c 0,16.767 9.734,17.907 18.765,31.278 4.383,6.489 8.605,16.961 3.216,27.957 5.228,9.596 6.754,22.992 -2.445,35.841" /></g><g
         transform="translate(936.7739,474.5815)"
         id="g68"><path
           inkscape:connector-curvature="0"
           id="path70"
           style="fill:#231f20;fill-opacity:1;fill-rule:nonzero;stroke:none"
           d="m 0,0 c -8.236,-6.768 -12.083,-10.372 -12.083,-16.142 v 7.452 c 0,5.528 7.933,15.624 14.664,23.797 3.177,3.858 6.069,8.737 7.699,13.949 C 12.021,16.999 8.221,6.755 0,0 m -12.083,10.194 c 0,9.002 5.498,18.028 14.127,25.929 2.676,2.448 5.421,5.774 7.564,9.772 C 10.063,38.33 10.214,28.65 0,19.073 -10.64,9.097 -12.083,7.222 -12.083,3.616 Z M 9.796,46.257 c 4.628,8.868 6.254,20.951 -2.272,34.12 7.044,-17.543 3.611,-30.46 -8.223,-40.146 -10.819,-8.855 -11.368,-8.403 -11.384,-12.519 V 84.41 h -0.003 c 0.014,1.576 -0.352,3.086 -1.149,4.429 -3.13,5.267 -11.654,5.98 -19.039,1.591 -7.387,-4.387 -10.837,-12.214 -7.709,-17.481 3.129,-5.268 11.655,-5.981 19.041,-1.594 2.681,1.594 4.836,3.643 6.353,5.856 V -29.122 h 2.506 c 0,8.893 7.692,14.903 14.664,22.835 6.963,7.923 12.484,22.228 7.706,35.363 1.756,5.627 2.012,11.634 -0.491,17.181" /></g><g
         transform="translate(605.916,603.8975)"
         id="g72"><path
           inkscape:connector-curvature="0"
           id="path74"
           style="fill:#231f20;fill-opacity:1;fill-rule:nonzero;stroke:none"
           d="m 0,0 c -3.129,5.268 -11.655,5.98 -19.041,1.593 -2.683,-1.594 -4.838,-3.644 -6.355,-5.858 v 91.768 h -2.507 v -99.109 h 0.003 c 0.01,-1.524 0.379,-2.982 1.152,-4.285 3.13,-5.267 11.654,-5.98 19.04,-1.591 C -0.322,-13.095 3.128,-5.268 0,0" /></g><g
         transform="translate(688.9102,603.8975)"
         id="g76"><path
           inkscape:connector-curvature="0"
           id="path78"
           style="fill:#231f20;fill-opacity:1;fill-rule:nonzero;stroke:none"
           d="m 0,0 c -3.13,5.268 -11.655,5.98 -19.041,1.593 -2.683,-1.594 -4.838,-3.645 -6.355,-5.859 V 55.87 c 0,0 7.701,2.884 13.924,-6.796 10.087,-15.69 8.433,-22.967 6.347,-39.764 7.164,18.708 4.197,30.429 -1.507,41.147 -5.704,10.718 -18.764,20.279 -18.764,37.046 h -2.507 v -99.109 h 0.004 c 0.009,-1.524 0.378,-2.982 1.151,-4.285 3.129,-5.267 11.653,-5.98 19.04,-1.591 C -0.323,-13.095 3.128,-5.268 0,0" /></g><g
         transform="translate(760.3706,658.3086)"
         id="g80"><path
           inkscape:connector-curvature="0"
           id="path82"
           style="fill:#231f20;fill-opacity:1;fill-rule:nonzero;stroke:none"
           d="m 0,0 c 7.43,-8.003 12.965,-16.924 9.748,-27.42 -1.362,3.779 -3.552,6.939 -6.35,10.485 -7.482,9.484 -15.512,14.851 -17.041,28.06 C -12.363,10.464 -6.845,7.374 0,0 m -7.569,-52.818 c -2.683,-1.595 -4.838,-3.645 -6.355,-5.859 v 42.828 c 0,0 4.653,4.092 12.482,-4.342 9.542,-10.28 11.742,-13.627 11.543,-28.496 1.715,9.41 1.511,15.514 -0.089,20.48 6.74,11.739 -0.514,23.127 -5.172,30.022 -9.031,13.371 -18.764,14.51 -18.764,31.277 h -2.507 v -99.109 h 0.004 c 0.009,-1.524 0.378,-2.983 1.151,-4.285 3.13,-5.267 11.653,-5.98 19.04,-1.591 7.385,4.387 10.836,12.214 7.708,17.482 -3.13,5.267 -11.655,5.98 -19.041,1.593" /></g><g
         transform="translate(829.502,673.0854)"
         id="g84"><path
           inkscape:connector-curvature="0"
           id="path86"
           style="fill:#231f20;fill-opacity:1;fill-rule:nonzero;stroke:none"
           d="m 0,0 c 0,-3.605 1.442,-5.481 12.083,-15.457 8.964,-8.405 9.939,-16.889 9.738,-23.955 -1.646,3.653 -4.284,6.668 -7.694,9.79 C 5.497,-21.722 0,-12.695 0,-3.694 Z m 0,19.758 c 0,-5.77 3.846,-9.374 12.083,-16.142 8.221,-6.755 12.021,-16.998 10.28,-29.055 -1.631,5.21 -4.523,10.09 -7.7,13.948 C 7.932,-3.318 0,6.778 0,12.306 Z m 25.396,-88.946 c -3.129,5.268 -11.654,5.98 -19.041,1.593 C 3.672,-69.189 1.518,-71.24 0,-73.454 v 52.242 c 0.015,-4.116 0.564,-3.664 11.383,-12.519 11.835,-9.686 11.123,-15.29 10.019,-29.732 2.802,10.222 2.939,16.988 1.106,22.317 1.837,5.121 1.46,10.562 -0.138,15.686 C 27.148,-12.325 21.626,1.979 14.663,9.903 7.691,17.835 0,23.844 0,32.738 H -2.506 V -80.794 h 0.003 c 0.009,-1.524 0.378,-2.982 1.151,-4.285 3.13,-5.267 11.654,-5.98 19.04,-1.591 7.386,4.387 10.837,12.214 7.708,17.482" /></g><g
         transform="translate(532.9272,638.0176)"
         id="g88"><path
           inkscape:connector-curvature="0"
           id="path90"
           style="fill:#231f20;fill-opacity:1;fill-rule:nonzero;stroke:none"
           d="m 0,0 c -2.144,3.998 -4.889,7.324 -7.564,9.773 -8.63,7.9 -14.127,16.927 -14.127,25.928 v 6.578 c 0,-3.606 1.442,-5.481 12.083,-15.457 C 0.605,17.245 0.454,7.565 0,0 m -21.691,62.037 c 0,-5.77 3.846,-9.374 12.083,-16.141 8.221,-6.755 12.021,-17 10.28,-29.056 -1.63,5.21 -4.523,10.091 -7.7,13.948 -6.731,8.173 -14.663,18.269 -14.663,23.797 z m 0,22.757 c 0.008,-2.798 0.366,-6.099 8.708,-13.023 7.558,-6.274 11.308,-17.656 11.873,-28.845 -1.639,3.568 -3.703,6.736 -5.918,9.256 C -14,60.114 -21.691,66.124 -21.691,75.017 Z M 0.188,-0.362 c 2.502,5.547 2.247,11.554 0.49,17.181 3.083,8.474 1.868,17.425 -1.245,24.845 3.478,13.688 -2.92,26.808 -9.776,33.353 -7.143,6.818 -11.348,16.165 -11.348,22.998 v 6.212 c 0,-4.192 4.425,-8.663 11.056,-15.464 6.814,-6.988 11.998,-21.529 9.952,-30.649 5.505,15.514 -0.343,26.236 -8.169,34.466 -7.826,8.231 -12.839,16.616 -12.839,22.207 v 3.623 h -2.506 V -32.425 c -3.811,3.666 -11.188,3.758 -17.688,-0.102 -7.386,-4.389 -10.836,-12.216 -7.707,-17.484 3.13,-5.267 11.654,-5.98 19.04,-1.591 5.517,3.277 8.834,8.473 8.859,13.087 h 0.002 v 56.698 c 0.015,-4.116 0.564,-3.664 11.383,-12.519 11.835,-9.686 15.268,-22.602 8.224,-40.145 8.525,13.168 6.899,25.252 2.272,34.119" /></g><g
         transform="translate(280.313,563.4204)"
         id="g92"><path
           inkscape:connector-curvature="0"
           id="path94"
           style="fill:#231f20;fill-opacity:1;fill-rule:nonzero;stroke:none"
           d="m 0,0 c -3.129,5.268 -11.653,5.98 -19.039,1.591 -5.517,-3.276 -8.835,-8.472 -8.859,-13.087 H -27.9 v -99.109 h 2.506 v 93.019 c 3.811,-3.665 11.188,-3.758 17.687,0.103 C -0.321,-13.094 3.13,-5.268 0,0" /></g><g
         transform="translate(350.8516,494.1294)"
         id="g96"><path
           inkscape:connector-curvature="0"
           id="path98"
           style="fill:#231f20;fill-opacity:1;fill-rule:nonzero;stroke:none"
           d="m 0,0 c -6.223,-9.681 -13.925,-9.681 -13.925,-9.681 v 61.386 c 3.811,-3.665 11.188,-3.758 17.688,0.103 7.385,4.389 10.836,12.215 7.707,17.483 -3.13,5.268 -11.654,5.98 -19.04,1.591 -5.517,-3.276 -8.834,-8.472 -8.859,-13.087 h -0.002 v -99.109 h 2.506 c 0,16.767 13.061,29.213 18.765,39.931 C 10.544,9.334 12.272,31.116 1.382,46.328 7.898,31.793 10.086,15.689 0,0" /></g><g
         transform="translate(432.8594,485.9072)"
         id="g100"><path
           inkscape:connector-curvature="0"
           id="path102"
           style="fill:#231f20;fill-opacity:1;fill-rule:nonzero;stroke:none"
           d="m 0,0 c -6.801,-7.327 -12.288,-10.422 -13.613,-11.109 1.726,13.973 10.95,22.861 18.453,32.371 1.403,1.777 2.661,3.547 3.735,5.361 C 11.671,16.396 7.307,7.872 0,0 M 8.397,57.479 C 10.611,39.748 10.683,36.026 0,24.519 c -7.83,-8.435 -13.925,-8.67 -13.925,-8.67 v 44.078 c 3.812,-3.665 11.188,-3.758 17.688,0.103 7.385,4.389 10.836,12.216 7.707,17.483 -3.13,5.268 -11.654,5.98 -19.04,1.591 -5.516,-3.276 -8.834,-8.472 -8.859,-13.087 h -0.002 v -99.109 h 2.506 c 0,16.767 9.734,17.907 18.765,31.278 4.583,6.785 10.507,17.672 4.144,29.177 4.322,7.727 5.228,16.396 -0.587,30.116" /></g><g
         transform="translate(520.5513,545.0068)"
         id="g104"><path
           inkscape:connector-curvature="0"
           id="path106"
           style="fill:#231f20;fill-opacity:1;fill-rule:nonzero;stroke:none"
           d="m 0,0 c 7.044,-17.543 3.611,-30.459 -8.224,-40.145 -11.083,-9.071 -11.39,-8.361 -11.384,-12.816 V 0.828 c 3.811,-3.666 11.188,-3.758 17.687,0.102 7.386,4.389 10.837,12.216 7.707,17.484 -3.13,5.267 -11.654,5.98 -19.04,1.591 -5.517,-3.276 -8.834,-8.473 -8.859,-13.088 h -0.002 v -116.416 h 2.507 v 56.487 c 0,-0.288 0.002,-0.594 0.002,-0.929 v -16.242 c 0,9.002 5.497,18.029 14.127,25.929 2.675,2.448 5.42,5.775 7.563,9.772 0.455,-7.564 0.606,-17.245 -9.608,-26.822 -10.64,-9.976 -12.082,-11.851 -12.082,-15.457 v -12.306 c 0,5.528 7.931,15.625 14.662,23.797 3.178,3.858 6.07,8.738 7.7,13.948 1.741,-12.056 -2.059,-22.3 -10.28,-29.055 -8.237,-6.768 -12.082,-10.372 -12.082,-16.142 v -12.98 c 0,8.894 7.691,14.903 14.662,22.835 6.964,7.924 12.486,22.228 7.707,35.363 1.756,5.627 2.011,11.635 -0.491,17.181 C 6.9,-25.252 8.526,-13.168 0,0" /></g><g
         transform="translate(602.5591,545.0068)"
         id="g108"><path
           inkscape:connector-curvature="0"
           id="path110"
           style="fill:#231f20;fill-opacity:1;fill-rule:nonzero;stroke:none"
           d="m 0,0 c 7.044,-17.543 3.611,-30.459 -8.223,-40.145 -11.084,-9.071 -11.391,-8.361 -11.385,-12.816 V 0.828 c 3.811,-3.666 11.188,-3.758 17.687,0.102 7.386,4.389 10.837,12.216 7.707,17.484 -3.13,5.267 -11.654,5.98 -19.039,1.591 -5.518,-3.276 -8.835,-8.473 -8.86,-13.088 h -0.002 v -139.414 h 2.507 v 79.485 c 0,-0.288 0.002,-0.594 0.002,-0.929 v -16.242 c 0,9.002 5.497,18.029 14.127,25.929 2.675,2.448 5.42,5.775 7.563,9.772 0.454,-7.564 0.606,-17.245 -9.608,-26.822 -10.64,-9.976 -12.082,-11.851 -12.082,-15.457 v -12.306 c 0,5.528 7.931,15.625 14.662,23.797 3.178,3.858 6.07,8.738 7.7,13.948 1.741,-12.056 -2.059,-22.3 -10.28,-29.055 -8.237,-6.768 -12.082,-10.372 -12.082,-16.142 v -12.98 c 0,8.894 7.691,14.903 14.662,22.835 2.215,2.52 4.28,5.688 5.918,9.257 -0.564,-11.19 -4.315,-22.572 -11.872,-28.845 -8.987,-7.461 -8.708,-10.715 -8.708,-13.666 v -12.579 c 0,6.833 4.205,16.18 11.348,22.998 6.856,6.545 13.254,19.666 9.776,33.354 3.113,7.419 4.328,16.37 1.246,24.844 1.756,5.627 2.011,11.635 -0.492,17.181 C 6.9,-25.252 8.526,-13.168 0,0" /></g><path
         inkscape:connector-curvature="0"
         id="path112"
         style="fill:#231f20;fill-opacity:1;fill-rule:nonzero;stroke:none"
         d="m 295.565,143.451 h -13.809 v 15.071 h 13.809 z m 0,-22.779 h -13.809 v 20.272 h 13.809 z m 0,-16.314 h -13.809 v 13.808 h 13.809 z m 0,-16.315 h -13.809 v 13.809 h 13.809 z m 0,-16.315 h -13.809 v 13.809 h 13.809 z m -16.315,71.723 h -13.809 v 15.071 h 13.809 z m 0,-22.779 h -13.809 v 20.272 h 13.809 z m 0,-16.314 h -13.809 v 13.808 h 13.809 z m 0,-16.315 h -13.809 v 13.809 h 13.809 z m 0,-16.315 h -13.809 v 13.809 h 13.809 z m -16.315,71.723 h -13.809 v 15.071 h 13.809 z m 0,-22.779 h -13.809 v 20.272 h 13.809 z m 0,-16.314 h -13.809 v 13.808 h 13.809 z m 0,-16.315 h -13.809 v 13.809 h 13.809 z m 0,-16.315 h -13.809 v 13.809 h 13.809 z M 246.62,171.632 V 54.751 h 2.506 v 14.471 h 13.809 V 54.751 h 2.506 V 69.222 H 279.25 V 54.751 h 2.506 v 14.471 h 13.809 V 54.751 h 2.506 v 116.881 z" /><g
         transform="translate(510.3018,104.3062)"
         id="g114"><path
           inkscape:connector-curvature="0"
           id="path116"
           style="fill:#231f20;fill-opacity:1;fill-rule:nonzero;stroke:none"
           d="m 0,0 c -3.302,0 -5.979,-3.212 -5.979,-7.174 0,-3.962 2.677,-7.175 5.979,-7.175 3.301,0 5.978,3.213 5.978,7.175 C 5.978,-3.212 3.301,0 0,0 m -15.623,-49.555 h 2.506 v 116.88 h -2.506 z m -20.952,0 h 13.11 v 116.88 h -13.11 z M 0,15.64 c 3.301,0 5.978,3.213 5.978,7.175 0,3.962 -2.677,7.174 -5.978,7.174 -3.302,0 -5.979,-3.212 -5.979,-7.174 0,-3.962 2.677,-7.175 5.979,-7.175" /></g><g
         transform="translate(397.731,105.5586)"
         id="g118"><path
           inkscape:connector-curvature="0"
           id="path120"
           style="fill:#231f20;fill-opacity:1;fill-rule:nonzero;stroke:none"
           d="m 0,0 c -9.126,5.642 -18.126,-0.289 -18.126,-0.289 l -4.635,7.826 4.635,7.826 c 0,0 9,-5.931 18.126,-0.288 10.225,6.321 9.864,16.93 9.864,23.759 0,6.83 -2.387,19.863 -11.95,25.418 -10.988,6.382 -25.983,0.297 -26.746,-10.243 -0.587,-8.125 2.657,-10.812 6.829,-10.812 3.794,0 6.45,2.477 6.45,6.829 0,5.718 -5.076,9.071 -1.328,11.381 4.554,2.808 11.153,-0.832 12.898,-12.709 1.666,-11.336 1.895,-20.881 -1.897,-26.935 -3.247,-5.183 -14.985,-4.742 -16.123,9.295 h -1.707 c 0,0 -1.701,-16.693 -10.809,-23.521 9.108,-6.828 10.809,-23.52 10.809,-23.52 h 1.707 c 1.138,14.036 12.876,14.478 16.123,9.294 3.792,-6.053 3.563,-15.599 1.897,-26.935 -1.745,-11.876 -8.344,-15.517 -12.898,-12.709 -3.748,2.31 1.328,5.664 1.328,11.381 0,4.352 -2.656,6.829 -6.45,6.829 -4.172,0 -7.416,-2.687 -6.829,-10.812 0.763,-10.539 15.758,-16.625 26.746,-10.243 9.563,5.555 11.95,18.589 11.95,25.418 C 9.864,-16.931 10.225,-6.321 0,0 M -37.025,67.049 V -49.832 h 2.506 V 7.537 67.049 Z M -57.978,-49.832 h 13.11 V 67.049 h -13.11 z" /></g><g
         transform="translate(584.5884,78.6929)"
         id="g122"><path
           inkscape:connector-curvature="0"
           id="path124"
           style="fill:#231f20;fill-opacity:1;fill-rule:nonzero;stroke:none"
           d="M 0,0 C -1.736,1.262 -3.677,2.499 -5.871,3.71 V 22.601 C 5.558,14.479 6.995,6.65 0,0 m -5.871,56.731 c 9.418,-7.363 13.942,-16.336 4.912,-23.368 -1.473,1 -3.107,2.036 -4.912,3.115 z M -8.377,37.939 c -0.918,0.524 -1.866,1.055 -2.864,1.599 -1.696,0.926 -3.258,1.849 -4.696,2.771 v 20.777 c 2.67,-1.375 5.224,-2.892 7.56,-4.511 z m 0,-32.911 c -0.221,0.112 -0.422,0.225 -0.647,0.337 -2.41,1.193 -4.737,2.506 -6.913,3.907 v 19.365 c 0.935,-0.532 1.901,-1.072 2.919,-1.624 1.675,-0.911 3.217,-1.82 4.641,-2.726 z m -10.066,38.977 c -11.749,8.404 -12.846,16.476 -5.018,23.245 1.528,-0.972 3.201,-1.929 5.018,-2.873 z m 0,-33.028 c -10.25,7.363 -15.852,16.65 -7.414,24 2.062,-1.538 4.516,-3.155 7.414,-4.883 z M 2.709,-2.134 c 6.027,5.177 9.172,9.257 9.158,16.982 -0.011,5.627 -2.054,10.421 -9.821,16.355 16.444,13.709 8.815,31.168 -7.917,41.255 V 85.221 H -8.377 V 73.876 c -0.795,0.422 -1.601,0.835 -2.429,1.224 -1.846,0.867 -3.551,1.778 -5.131,2.718 v 7.403 h -2.506 v -5.809 c -6.207,4.235 -9.692,8.944 -9.692,13.267 0,5.864 4.134,10.823 10.269,10.823 13.459,0 12.623,-15.617 17.757,-15.617 5.134,0 7.513,3.209 7.513,7.701 0,5.349 -9.224,14.335 -20.777,14.335 -11.553,0 -22.035,-4.927 -23.628,-17.85 -1.113,-9.031 1.836,-16.314 10.637,-22.834 -6.458,-5.468 -9.829,-9.563 -9.801,-17.571 0.017,-5.006 1.636,-9.348 7.469,-14.416 -16.14,-14.089 -7.431,-31.93 10.253,-41.705 V -18.68 h 2.506 v 12.927 c 0.237,-0.116 0.468,-0.236 0.708,-0.349 2.541,-1.194 4.824,-2.468 6.852,-3.79 v -8.788 h 2.506 v 7.023 c 5.122,-3.902 7.971,-8.12 7.971,-12.025 0,-5.864 -4.134,-10.823 -10.269,-10.823 -13.459,0 -12.623,15.618 -17.757,15.618 -5.135,0 -7.512,-3.21 -7.512,-7.702 0,-5.349 9.223,-14.334 20.776,-14.334 11.553,0 22.035,4.926 23.628,17.849 1.007,8.166 -1.302,14.903 -8.257,20.94" /></g><g
         transform="translate(909.4155,591.8105)"
         id="g126"><path
           inkscape:connector-curvature="0"
           id="path128"
           style="fill:#231f20;fill-opacity:1;fill-rule:nonzero;stroke:none"
           d="m 0,0 c -5.592,-3.323 -9.96,-5.863 -12.33,-1.874 -2.369,3.989 1.528,7.179 7.121,10.502 5.592,3.322 10.763,5.518 13.132,1.53 C 10.292,6.169 5.593,3.322 0,0 M 9.817,106.802 V 13.782 C 6.006,17.448 -1.371,17.54 -7.87,13.68 -15.256,9.291 -18.707,1.464 -15.577,-3.804 c 3.13,-5.267 11.654,-5.98 19.04,-1.591 5.516,3.277 8.834,8.473 8.859,13.087 h 0.002 v 99.11 z" /></g><g
         transform="translate(177.9375,550.9888)"
         id="g130"><path
           inkscape:connector-curvature="0"
           id="path132"
           style="fill:#231f20;fill-opacity:1;fill-rule:nonzero;stroke:none"
           d="m 0,0 c -5.592,-3.322 -10.763,-5.519 -13.132,-1.53 -2.369,3.989 2.33,6.836 7.923,10.158 5.592,3.323 9.96,5.863 12.33,1.874 C 9.49,6.513 5.593,3.323 0,0 m 10.368,12.432 c -3.13,5.267 -11.654,5.98 -19.04,1.591 -5.516,-3.276 -8.834,-8.473 -8.859,-13.087 h -0.002 v -99.11 h 2.506 v 93.02 c 3.812,-3.666 11.189,-3.758 17.688,0.102 7.385,4.389 10.837,12.216 7.707,17.484" /></g><g
         transform="translate(819.5181,111.1055)"
         id="g134"><path
           inkscape:connector-curvature="0"
           id="path136"
           style="fill:#231f20;fill-opacity:1;fill-rule:nonzero;stroke:none"
           d="m 0,0 c 5.365,-10.837 11.267,-14.424 19.141,-13.455 8.697,1.074 12.013,8.128 12.013,15.903 0,7.776 -6.048,13.984 -9.648,13.984 -3.023,0 -5.183,-1.601 -5.183,-5.057 0,-3.455 10.511,-2.893 10.511,-11.951 0,-4.129 -3.337,-6.911 -7.285,-6.911 -3.946,0 -8.374,4.305 -11.831,11.663 L 7.724,4.172 C 2.36,15.009 -3.543,18.597 -11.416,17.627 -20.113,16.555 -23.43,9.5 -23.43,1.724 c 0,-7.775 6.048,-13.984 9.648,-13.984 3.024,0 5.183,1.601 5.183,5.057 0,3.455 -10.511,2.892 -10.511,11.951 0,4.129 3.338,6.911 7.285,6.911 3.946,0 8.374,-4.304 11.831,-11.663 z" /></g><g
         transform="translate(811.2651,350.7227)"
         id="g138"><path
           inkscape:connector-curvature="0"
           id="path140"
           style="fill:#231f20;fill-opacity:1;fill-rule:nonzero;stroke:none"
           d="m 0,0 c -4.667,-1.205 -9.82,3.123 -11.51,9.667 -1.69,6.545 0.724,12.828 5.391,14.033 4.667,1.205 9.82,-3.123 11.51,-9.669 C 7.081,7.486 4.667,1.204 0,0 m -3.06,26.244 c -11.148,0 -20.187,-6.446 -20.187,-14.395 0,-7.951 9.039,-14.395 20.187,-14.395 11.15,0 20.187,6.444 20.187,14.395 0,7.949 -9.037,14.395 -20.187,14.395" /></g><path
         inkscape:connector-curvature="0"
         id="path142"
         style="fill:#231f20;fill-opacity:1;fill-rule:nonzero;stroke:none"
         d="m 736.22,343.664 h 2.506 v 37.814 h -2.506 z m -17.177,7.059 c -4.667,-1.205 -9.82,3.123 -11.51,9.667 -1.69,6.545 0.724,12.828 5.391,14.032 4.667,1.205 9.82,-3.123 11.51,-9.669 1.69,-6.544 -0.725,-12.826 -5.391,-14.03 m -3.06,26.243 c -11.149,0 -20.186,-6.445 -20.186,-14.395 0,-7.95 9.037,-14.395 20.186,-14.395 11.15,0 20.187,6.445 20.187,14.395 0,7.95 -9.037,14.395 -20.187,14.395 m 27.703,-33.302 h 2.506 v 37.814 h -2.506 z m -57.911,0 h 2.506 v 37.814 h -2.506 z m 7.467,0 h 2.506 v 37.814 h -2.506 z" /><g
         transform="translate(416.9058,396.5728)"
         id="g144"><path
           inkscape:connector-curvature="0"
           id="path146"
           style="fill:#231f20;fill-opacity:1;fill-rule:nonzero;stroke:none"
           d="m 0,0 c -6.023,0.03 -13.668,-3.882 -18.894,-20.398 h -7.256 v -3.256 h 6.283 c -4.324,-15.608 -7.913,-39.953 -13.889,-41.161 -4.422,-0.893 -3.314,2.485 -3.314,2.485 3.504,0 5.428,6.996 1.449,8.491 -2.945,1.107 -6.419,-1.822 -6.419,-5.799 0,-4.142 1.926,-8.365 7.292,-8.365 6.627,0 14.91,8.748 19.467,28.247 1.326,5.673 2.705,11.166 4.123,16.102 h 10.06 v 3.256 h -9.093 c 3.135,10.193 6.442,17.298 9.777,17.298 1.839,0 3.934,-2.637 2.278,-3.935 -3.957,0.022 -6.606,-7.755 -1.45,-8.491 4.35,-0.621 6.628,4.762 6.628,8.491 C 7.042,-3.307 4.781,-0.024 0,0" /></g><g
         transform="translate(511.0259,396.5728)"
         id="g148"><path
           inkscape:connector-curvature="0"
           id="path150"
           style="fill:#231f20;fill-opacity:1;fill-rule:nonzero;stroke:none"
           d="m 0,0 c -6.023,0.03 -13.668,-3.882 -18.894,-20.398 h -17.438 c 3.135,10.193 6.442,17.298 9.777,17.298 1.839,0 3.934,-2.637 2.278,-3.935 -3.957,0.022 -6.606,-7.755 -1.45,-8.491 4.35,-0.621 6.627,4.762 6.627,8.491 0,3.728 -2.26,7.011 -7.041,7.035 -6.023,0.03 -13.669,-3.882 -18.894,-20.398 h -7.256 v -3.256 h 6.283 c -4.325,-15.608 -7.913,-39.953 -13.889,-41.161 -4.422,-0.893 -3.314,2.485 -3.314,2.485 3.503,0 5.428,6.996 1.449,8.491 -2.946,1.107 -6.419,-1.822 -6.419,-5.799 0,-4.142 1.926,-8.365 7.292,-8.365 6.627,0 14.91,8.748 19.467,28.247 1.326,5.673 2.705,11.166 4.123,16.102 h 17.432 c -4.325,-15.608 -7.913,-39.953 -13.889,-41.161 -4.422,-0.893 -3.315,2.485 -3.315,2.485 3.505,0 5.429,6.996 1.45,8.491 -2.945,1.107 -6.42,-1.822 -6.42,-5.799 0,-4.142 1.927,-8.365 7.293,-8.365 6.627,0 14.91,8.748 19.467,28.247 1.326,5.673 2.705,11.166 4.122,16.102 h 10.061 v 3.256 h -9.093 c 3.135,10.193 6.441,17.298 9.777,17.298 1.839,0 3.934,-2.637 2.278,-3.935 -3.957,0.022 -6.606,-7.755 -1.45,-8.491 4.349,-0.621 6.628,4.762 6.628,8.491 C 7.042,-3.307 4.781,-0.024 0,0" /></g><g
         transform="translate(636.2407,396.5728)"
         id="g152"><path
           inkscape:connector-curvature="0"
           id="path154"
           style="fill:#231f20;fill-opacity:1;fill-rule:nonzero;stroke:none"
           d="m 0,0 c -6.023,0.03 -13.668,-3.882 -18.894,-20.398 h -17.438 c 3.136,10.193 6.442,17.298 9.777,17.298 1.839,0 3.934,-2.637 2.278,-3.935 -3.957,0.022 -6.605,-7.755 -1.45,-8.491 4.35,-0.621 6.628,4.762 6.628,8.491 0,3.728 -2.261,7.011 -7.042,7.035 -6.023,0.03 -13.668,-3.882 -18.894,-20.398 h -17.438 c 3.136,10.193 6.442,17.298 9.777,17.298 1.839,0 3.934,-2.637 2.279,-3.935 -3.958,0.022 -6.606,-7.755 -1.451,-8.491 4.35,-0.621 6.628,4.762 6.628,8.491 0,3.728 -2.26,7.011 -7.042,7.035 -6.023,0.03 -13.668,-3.882 -18.893,-20.398 h -7.257 v -3.256 h 6.284 c -4.325,-15.608 -7.914,-39.953 -13.89,-41.161 -4.422,-0.893 -3.314,2.485 -3.314,2.485 3.504,0 5.429,6.996 1.45,8.491 -2.946,1.107 -6.42,-1.822 -6.42,-5.799 0,-4.142 1.926,-8.365 7.292,-8.365 6.627,0 14.91,8.748 19.467,28.247 1.326,5.673 2.705,11.166 4.124,16.102 h 17.431 c -4.325,-15.608 -7.913,-39.953 -13.889,-41.161 -4.422,-0.893 -3.314,2.485 -3.314,2.485 3.504,0 5.429,6.996 1.45,8.491 -2.946,1.107 -6.42,-1.822 -6.42,-5.799 0,-4.142 1.926,-8.365 7.292,-8.365 6.627,0 14.91,8.748 19.467,28.247 1.326,5.673 2.705,11.166 4.124,16.102 h 17.431 c -4.324,-15.608 -7.913,-39.953 -13.889,-41.161 -4.422,-0.893 -3.314,2.485 -3.314,2.485 3.504,0 5.428,6.996 1.45,8.491 -2.946,1.107 -6.42,-1.822 -6.42,-5.799 0,-4.142 1.926,-8.365 7.292,-8.365 6.627,0 14.91,8.748 19.467,28.247 1.326,5.673 2.705,11.166 4.123,16.102 h 10.06 v 3.256 h -9.093 c 3.135,10.193 6.442,17.298 9.777,17.298 1.839,0 3.934,-2.637 2.278,-3.935 -3.957,0.022 -6.605,-7.755 -1.45,-8.491 4.35,-0.621 6.628,4.762 6.628,8.491 C 7.042,-3.307 4.781,-0.024 0,0" /></g><g
         transform="translate(275.3491,384.356)"
         id="g156"><path
           inkscape:connector-curvature="0"
           id="path158"
           style="fill:#231f20;fill-opacity:1;fill-rule:nonzero;stroke:none"
           d="m 0,0 -7.66,-28.694 -9.42,28.009 h -6.467 L -9.125,-43.569 2.506,0 Z" /></g><g
         transform="translate(323.4136,384.356)"
         id="g160"><path
           inkscape:connector-curvature="0"
           id="path162"
           style="fill:#231f20;fill-opacity:1;fill-rule:nonzero;stroke:none"
           d="m 0,0 -11.631,-43.569 h 2.506 l 7.66,28.694 9.421,-28.009 h 6.466 z" /></g><g
         transform="translate(663.5776,284.5562)"
         id="g164"><path
           inkscape:connector-curvature="0"
           id="path166"
           style="fill:#231f20;fill-opacity:1;fill-rule:nonzero;stroke:none"
           d="m 0,0 c -14.06,0 -30.668,-10.825 -30.668,-40.89 h 3.207 c 0,11.989 8.105,28.062 27.461,28.062 19.355,0 27.46,-16.073 27.46,-28.062 h 3.207 C 30.667,-10.825 14.07,0 0,0 m 0,-30.267 c -2.823,0 -5.111,-2.289 -5.111,-5.111 0,-2.823 2.288,-5.112 5.111,-5.112 2.822,0 5.111,2.289 5.111,5.112 0,2.822 -2.289,5.111 -5.111,5.111" /></g><g
         transform="translate(768.3911,284.5562)"
         id="g168"><path
           inkscape:connector-curvature="0"
           id="path170"
           style="fill:#231f20;fill-opacity:1;fill-rule:nonzero;stroke:none"
           d="m 0,0 c 0,-11.989 -8.105,-28.062 -27.46,-28.062 -19.356,0 -27.461,16.073 -27.461,28.062 h -3.207 c 0,-30.065 16.598,-40.89 30.668,-40.89 14.06,0 30.667,10.825 30.667,40.89 z m -27.46,-10.624 c 2.822,0 5.111,2.29 5.111,5.112 0,2.823 -2.289,5.111 -5.111,5.111 -2.823,0 -5.112,-2.288 -5.112,-5.111 0,-2.822 2.289,-5.112 5.112,-5.112" /></g><g
         transform="translate(664.7627,107.9702)"
         id="g172"><path
           inkscape:connector-curvature="0"
           id="path174"
           style="fill:#231f20;fill-opacity:1;fill-rule:nonzero;stroke:none"
           d="M 0,0 -11.895,-4.452 V 10.442 L 0,14.895 Z m 0,25.211 -11.895,-4.452 v 24.98 h -2.506 v -61.445 l 2.506,0.938 L 0,-10.316 v -24.98 h 2.506 v 61.445 z" /></g><g
         transform="translate(710.4712,80.5732)"
         id="g176"><path
           inkscape:connector-curvature="0"
           id="path178"
           style="fill:#231f20;fill-opacity:1;fill-rule:nonzero;stroke:none"
           d="M 0,0 V 25.485 C 2.124,26.39 8.257,28.594 9.807,24.626 11.689,19.806 9.397,11.974 0,0 M 14.908,27.198 C 12.808,35.428 4.577,32.925 0,28.224 V 71.273 H -2.506 V -6.037 L 0,-2.936 c 6.687,7.381 17.563,19.729 14.908,30.134" /></g><g
         transform="translate(816.4673,240.2412)"
         id="g180"><path
           inkscape:connector-curvature="0"
           id="path182"
           style="fill:#231f20;fill-opacity:1;fill-rule:nonzero;stroke:none"
           d="m 0,0 c -7.874,2.898 -7.613,15.976 -7.613,26.017 0,8.884 2.56,19.062 7.613,23.087 z m 3.529,-0.593 c -0.352,0 -0.692,0.015 -1.023,0.043 v 51.039 c 0.727,0.243 1.481,0.406 2.285,0.406 2.917,0 8.556,-0.973 10.863,-6.58 C 9.43,45.174 6.826,41.408 6.141,36.906 5.62,33.48 7.622,27.247 13.147,26.758 c 5.526,-0.489 8.951,5.46 8.951,9.607 0,8.156 -4.327,18.208 -17.127,18.208 -0.831,0 -1.653,-0.052 -2.465,-0.145 V 73.425 H 0 V 53.976 C -10.467,51.473 -18.465,41.123 -18.465,26.729 -18.465,10.175 -11.723,-1.444 0,-2.942 V -25.685 H 2.506 V -3.11 c 0.042,0 0.08,-0.007 0.121,-0.007 11.8,0 18.75,6.851 19.471,20.913 h -1.983 c 0,-9.181 -6.25,-18.389 -16.586,-18.389" /></g><g
         transform="translate(761.2681,144.627)"
         id="g184"><path
           inkscape:connector-curvature="0"
           id="path186"
           style="fill:#231f20;fill-opacity:1;fill-rule:nonzero;stroke:none"
           d="m 0,0 c 0,0 6.298,-4.226 6.298,-10.979 0,-6.754 -9.488,-6.965 -9.488,-13.683 0,-6.718 9.488,-8.609 9.488,-15.116 0,-6.508 -9.488,-9.055 -9.488,-15.326 0,-3.989 3.19,-5.459 3.19,-5.459 l -1.506,-2.308 c 0,0 -6.298,4.226 -6.298,10.98 0,6.753 9.489,6.964 9.489,13.683 0,6.718 -9.489,8.608 -9.489,15.116 0,6.508 9.489,9.054 9.489,15.326 0,3.989 -3.191,5.458 -3.191,5.458 z" /></g><g
         transform="translate(158.6973,256.5664)"
         id="g188"><path
           inkscape:connector-curvature="0"
           id="path190"
           style="fill:#231f20;fill-opacity:1;fill-rule:nonzero;stroke:none"
           d="M 0,0 16.617,21.18 29.48,8.883 39.529,21.134 52.741,8.45 59.217,16.923 61.524,15.088 44.908,-6.09 32.044,6.206 21.995,-6.045 8.783,6.639 2.307,-1.834 Z" /></g><g
         transform="translate(305.2676,273.4893)"
         id="g192"><path
           inkscape:connector-curvature="0"
           id="path194"
           style="fill:#231f20;fill-opacity:1;fill-rule:nonzero;stroke:none"
           d="M 0,0 -6.476,-8.473 -19.688,4.211 -27.202,-4.95 v 17.522 h -2.506 V -8.006 l -0.029,-0.035 -12.864,12.297 -16.616,-21.179 2.307,-1.835 6.476,8.473 13.212,-12.684 7.514,9.162 v -17.521 h 2.506 v 20.577 l 0.029,0.034 12.864,-12.296 16.616,21.178 z" /></g><g
         transform="translate(899.062,255.6025)"
         id="g196"><path
           inkscape:connector-curvature="0"
           id="path198"
           style="fill:#231f20;fill-opacity:1;fill-rule:nonzero;stroke:none"
           d="M 0,0 -6.851,-1.766 V 17.019 L 0,18.785 Z m 7.766,20.786 v 9.456 L 2.506,28.886 V 51.595 H 0 V 28.24 L -6.851,26.474 V 48.667 H -9.357 V 25.828 l -5.259,-1.355 v -9.456 l 5.259,1.356 V -2.412 l -5.259,-1.356 v -9.455 l 5.259,1.355 v -22.709 h 2.506 v 23.355 L 0,-9.456 V -31.65 h 2.506 v 22.84 l 5.26,1.356 V 2.001 L 2.506,0.646 V 19.43 Z" /></g><g
         transform="translate(894.957,105.0591)"
         id="g200"><path
           inkscape:connector-curvature="0"
           id="path202"
           style="fill:#231f20;fill-opacity:1;fill-rule:nonzero;stroke:none"
           d="M 0,0 -10.196,10.194 -4.124,16.266 6.07,6.071 Z m 10.084,8.664 h 0.001 l -10.907,10.905 0.001,0.001 -1.772,1.772 -1.899,-1.9 -1.404,-1.403 -9.375,-9.375 1.772,-1.773 10.195,-10.194 -0.001,-0.002 1.773,-1.772 12.678,12.679 z" /></g><g
         transform="translate(187.563,367.9429)"
         id="g204"><path
           inkscape:connector-curvature="0"
           id="path206"
           style="fill:#231f20;fill-opacity:1;fill-rule:nonzero;stroke:none"
           d="M 0,0 18.782,32.573 15.843,32.717 -2.838,0.321 c -0.483,0.038 -0.961,0.08 -1.466,0.102 l 0.007,-0.005 c -8.197,0.141 -13.993,3.122 -15.637,7.876 -1.645,4.756 -0.482,10.301 3.309,12.56 8.313,4.955 12.178,-8.019 15.349,-6.128 3.172,1.89 3.743,5.369 2.483,9.012 -1.5,4.338 -9.721,8.229 -16.857,3.975 -7.137,-4.254 -12.232,-12.109 -9.592,-23.176 2.091,-8.756 6.749,-13.792 16.024,-15.281 l -18.783,-32.572 2.939,-0.144 18.682,32.396 c 0.483,-0.039 0.96,-0.081 1.465,-0.103 l -0.007,0.005 c 8.195,-0.14 13.992,-3.121 15.638,-7.875 1.644,-4.757 0.48,-10.301 -3.31,-12.56 -8.314,-4.956 -12.177,8.018 -15.35,6.127 -3.172,-1.89 -3.741,-5.368 -2.481,-9.012 1.5,-4.337 9.72,-8.229 16.856,-3.976 7.138,4.254 12.231,12.11 9.592,23.176 C 13.934,-6.525 9.274,-1.488 0,0 m -24.411,-18.942 c 1.983,0 3.591,1.607 3.591,3.59 0,1.983 -1.608,3.59 -3.591,3.59 -1.983,0 -3.59,-1.607 -3.59,-3.59 0,-1.983 1.607,-3.59 3.59,-3.59 M 15.192,8.199 c -1.983,0 -3.59,-1.607 -3.59,-3.591 0,-1.983 1.607,-3.589 3.59,-3.589 1.983,0 3.59,1.606 3.59,3.589 0,1.984 -1.607,3.591 -3.59,3.591" /></g><g
         transform="translate(895.0093,344.5977)"
         id="g208"><path
           inkscape:connector-curvature="0"
           id="path210"
           style="fill:#231f20;fill-opacity:1;fill-rule:nonzero;stroke:none"
           d="m 0,0 c -2.944,0.211 -1.683,4.627 0,12.341 0.215,0.986 0.502,2.182 0.84,3.518 C 7.091,8.332 2.798,-0.2 0,0 m -5.125,15.673 c -1.818,-0.47 -3.583,-0.495 -5.206,-0.03 -2.445,0.702 -4.209,2.469 -4.602,4.61 -0.395,2.157 -0.065,4.138 0.933,5.578 0.858,1.237 2.187,2.049 3.84,2.345 3.539,0.637 5.941,-1.641 7.131,-4.14 -0.711,-2.858 -1.434,-5.746 -2.096,-8.363 m 32.372,14.056 c -2.227,-0.015 -5.097,-2.07 -7.229,-5.263 0.291,3.219 -1.277,5.19 -4.011,5.19 H 15.988 C 13.876,29.648 10.124,28.288 4.235,21.854 3.438,20.982 2.619,20.2 1.789,19.495 4.219,28.592 7.782,40.582 7.782,40.582 H 1.051 c 0,0 -1.679,-6.876 -3.578,-14.525 -1.593,2.369 -4.232,4.191 -7.887,3.538 -2.04,-0.365 -3.69,-1.383 -4.772,-2.943 -1.217,-1.757 -1.631,-4.122 -1.165,-6.659 0.492,-2.683 2.646,-4.882 5.622,-5.737 0.671,-0.192 1.658,-0.388 2.894,-0.388 0.693,0 1.469,0.068 2.308,0.226 -0.83,-3.262 -1.532,-5.951 -1.935,-7.364 -3.45,-12.076 4.34,-13.272 8.724,-9.382 9.117,8.091 4.051,16.9 1.065,20.692 0.966,0.797 1.959,1.734 2.971,2.84 4.293,4.691 7.254,6.439 9.097,7.043 3.228,0.964 -5.788,-28.82 -5.788,-28.82 h 5.174 c 0,0 2.095,9.009 3.89,15.929 2.989,8.896 5.845,10.572 8.009,10.572 -2.507,-2.92 -0.43,-6.633 2.253,-6.761 1.732,-0.082 4.067,0.47 4.506,4.597 0.462,4.331 -2.037,6.31 -5.192,6.289" /></g></g></g></svg>