<?xml version="1.0" encoding="UTF-8" standalone="no"?>
<!-- Created with Inkscape (http://www.inkscape.org/) -->

<svg xmlns:dc="http://purl.org/dc/elements/1.1/" xmlns:cc="http://creativecommons.org/ns#" xmlns:rdf="http://www.w3.org/1999/02/22-rdf-syntax-ns#"
    xmlns="http://www.w3.org/2000/svg" xmlns:sodipodi="http://sodipodi.sourceforge.net/DTD/sodipodi-0.dtd"
    xmlns:inkscape="http://www.inkscape.org/namespaces/inkscape" version="1.1" id="svg2" xml:space="preserve"
    width="1933.3333" height="1496" viewBox="0 0 1933.3333 1496" sodipodi:docname="notes.svg"
    inkscape:version="0.92.4 (5da689c313, 2019-01-14)"><metadata
     id="metadata8"><rdf:RDF><cc:Work
         rdf:about=""><dc:format>image/svg+xml</dc:format><dc:type
           rdf:resource="http://purl.org/dc/dcmitype/StillImage" /><dc:title></dc:title></cc:Work></rdf:RDF></metadata><defs
     id="defs6" /><sodipodi:namedview
     pagecolor="#ffffff"
     bordercolor="#666666"
     borderopacity="1"
     objecttolerance="10"
     gridtolerance="10"
     guidetolerance="10"
     inkscape:pageopacity="0"
     inkscape:pageshadow="2"
     inkscape:window-width="1920"
     inkscape:window-height="1154"
     id="namedview4"
     showgrid="false"
     inkscape:zoom="0.15775401"
     inkscape:cx="966.66663"
     inkscape:cy="748"
     inkscape:window-x="1280"
     inkscape:window-y="0"
     inkscape:window-maximized="1"
     inkscape:current-layer="g10" /><g
     id="g10"
     inkscape:groupmode="layer"
     inkscape:label="ink_ext_XXXXXX"
     transform="matrix(1.3333333,0,0,-1.3333333,0,1496)"><g
       id="g12"
       transform="scale(0.1)"><path
         d="M 14500,0 H 0 V 11220 H 14500 V 0"
         style="fill:#ffffff;fill-opacity:1;fill-rule:nonzero;stroke:none"
         id="path14"
         inkscape:connector-curvature="0" /><path
         d="m 700.547,1080.4 c -67.879,0 -125.234,-36.1 -125.234,-78.7 0,-42.7 57.355,-78.7 125.234,-78.7 67.883,0 125.238,36 125.238,78.7 0,42.6 -57.355,78.7 -125.238,78.7 z m 0,-198.9 c -93.477,0 -166.692,52.801 -166.692,120.2 0,67.4 73.215,120.1 166.692,120.1 93.48,0 166.695,-52.7 166.695,-120.1 0,-67.399 -73.215,-120.2 -166.695,-120.2"
         style="fill:#000000;fill-opacity:1;fill-rule:nonzero;stroke:none"
         id="path16"
         inkscape:connector-curvature="0" /><path
         d="m 1174.71,9356.16 -8.28,43.46 c -0.2,1.21 -0.19,2.4 -0.44,3.62 l -51.86,246.15 c 33,-1.76 125.34,-17.85 149.27,-141.51 0,0 20.55,-93.03 -88.69,-151.72 z m -321.956,39.17 c -49.051,41.62 -84.758,101.53 -87.84,165.79 -3.539,73.81 35.086,143.3 81.371,200.9 47.031,58.53 103.246,109.67 165.945,150.98 10.77,-46.58 21.53,-93.17 32.29,-139.75 2.27,-9.81 4.46,-20.48 0.25,-29.63 -4.59,-9.97 -15.36,-15.21 -25,-20.46 -70.805,-38.56 -114.2,-116.01 -115.641,-195.94 -0.547,-30.16 3.988,-61.4 20.055,-86.94 16.062,-25.53 45.484,-44.14 75.476,-40.91 -12.887,-1.39 -33.519,54.3 -36.383,63.78 -7.984,26.45 -9.621,54.95 -4.57,82.12 10.723,57.64 54.363,97.19 113.313,102.69 21.19,-95.49 45.77,-208.89 65.72,-308.29 0.09,-0.5 0.19,-0.98 0.29,-1.47 -96.47,-30.72 -208.077,-8.38 -285.276,57.13 z m 190.356,1031.77 c 47.04,63.4 148.63,35.2 155.89,-43.4 0,0 14.31,-112.7 -83.83,-224.3 -15.94,-21.7 -49.87,-54.9 -89.42,-90.5 l -11.81,56 c -0.85,4.1 -1.41,14.6 -2.06,18.8 -10.43,67.1 -12.185,163.5 -5.85,200.8 8.4,49.4 37.08,82.6 37.08,82.6 z m 206.56,-719.19 c -32.55,25.24 -86.63,35.65 -126.18,37.58 -20.78,1.01 -23.34,-3.25 -33.59,11.84 -9.52,14.01 -9.79,47.36 -13.28,64.2 -8.85,42.66 -17.71,85.32 -26.56,127.98 93.9,57.99 164.28,152.99 192.47,259.69 28.2,106.7 13.9,224 -39.09,320.8 -16.89,30.9 -43.9,63.1 -79.03,61.1 -26.29,-1.5 -47.34,-21.9 -63.37,-42.8 -50.81,-66.2 -77.407,-148.8 -85.45,-231.9 -8.039,-83 1.621,-166.9 17.668,-248.8 1.531,-7.8 3.094,-16.1 0.496,-23.6 -2.813,-8.1 -9.965,-13.9 -16.789,-19.1 -98.961,-76.44 -205.481,-153.44 -257.813,-266.97 -31.054,-67.38 -40.355,-144.57 -26.195,-217.4 14.594,-75.03 55.824,-146.83 120.398,-187.73 42.305,-26.8 92.086,-39.25 141.543,-47.13 62.612,-9.98 127.362,-13.18 188.882,2.13 7.08,-37.43 13.1,-75.06 17.74,-112.87 3.67,-29.83 7.38,-60.22 8.74,-90.45 0.44,-9.66 -0.33,-19.08 -0.33,-28.68 -1.94,-19.73 -9.65,-39.2 -20.27,-55.83 -4.73,-7.4 -10.16,-14.36 -16.2,-20.75 -18.28,-19.35 -41.3,-33.67 -65.58,-44.29 -17.27,-7.56 -35.9,-12.18 -54.76,-13.08 -9.48,-0.45 -19.011,0.04 -28.378,1.57 -0.762,0.12 -1.64,0.28 -2.445,0.41 37.493,20.25 63.263,59.42 63.263,105.02 0,66.18 -53.646,119.82 -119.822,119.82 -66.175,0 -119.82,-53.64 -119.82,-119.82 0,-20.06 5.398,-38.68 14.113,-55.29 l -0.695,0.21 c 1.695,-3.26 3.711,-6.09 5.555,-9.16 0.742,-1.17 1.359,-2.41 2.14,-3.54 62.785,-99.17 200.469,-93.74 200.469,-93.74 16.77,-0.78 34.56,2.81 50.66,6.94 35.99,9.23 69.77,27.27 95.83,53.94 12.44,12.73 23.01,27.23 31.61,42.8 7.06,12.77 13.3,26.14 16.6,40.41 4.58,19.81 3.13,40.05 1.21,60.09 -4.44,46.5 -13.06,92.49 -22.24,138.42 -2.18,10.85 -4.35,21.71 -6.52,32.57 -3.88,19.4 -7.76,38.8 -11.64,58.2 -0.19,0.98 -0.39,1.96 -0.59,2.94 0,0 115.28,33.62 139.3,134.49 0,0 45.63,158.51 -72.05,249.78"
         style="fill:#000000;fill-opacity:1;fill-rule:nonzero;stroke:none"
         id="path18"
         inkscape:connector-curvature="0" /><path
         d="m 12649.8,5236.32 c -67.9,0 -125.2,-36.04 -125.2,-78.71 0,-42.66 57.3,-78.7 125.2,-78.7 67.9,0 125.3,36.04 125.3,78.7 0,42.67 -57.4,78.71 -125.3,78.71 z m 0,-198.87 c -93.5,0 -166.7,52.78 -166.7,120.16 0,67.39 73.2,120.17 166.7,120.17 93.5,0 166.7,-52.78 166.7,-120.17 0,-67.38 -73.2,-120.16 -166.7,-120.16"
         style="fill:#000000;fill-opacity:1;fill-rule:nonzero;stroke:none"
         id="path20"
         inkscape:connector-curvature="0" /><path
         d="m 12871.7,5139.19 h -443.8 c -0.9,0 -1.7,0.75 -1.7,1.69 v 33.47 c 0,0.93 0.8,1.69 1.7,1.69 h 443.8 c 0.9,0 1.7,-0.76 1.7,-1.69 v -33.47 c 0,-0.94 -0.8,-1.69 -1.7,-1.69"
         style="fill:#000000;fill-opacity:1;fill-rule:nonzero;stroke:none"
         id="path22"
         inkscape:connector-curvature="0" /><path
         d="m 11478.9,9472.71 v 0 679.09 c 0,3 -2.4,5.5 -5.5,5.5 h -24.3 c -3,0 -5.5,-2.5 -5.5,-5.5 v -623.92 c -35.9,17.85 -90.7,14.61 -142.3,-12.25 -71.8,-37.32 -110.1,-105.86 -85.5,-153.08 24.5,-47.23 102.6,-55.27 174.4,-17.95 59.9,31.14 89,84.17 88.7,128.11"
         style="fill:#000000;fill-opacity:1;fill-rule:nonzero;stroke:none"
         id="path24"
         inkscape:connector-curvature="0" /><path
         d="m 5632.3,6963.42 h -426.66 c -1.34,0 -2.42,1.08 -2.42,2.41 v 26.81 c 0,1.33 1.08,2.41 2.42,2.41 h 426.66 c 1.34,0 2.42,-1.08 2.42,-2.41 v -26.81 c 0,-1.33 -1.08,-2.41 -2.42,-2.41"
         style="fill:#000000;fill-opacity:1;fill-rule:nonzero;stroke:none"
         id="path26"
         inkscape:connector-curvature="0" /><path
         d="m 5565.42,7028.56 v 0 679.08 c 0,3.04 -2.46,5.5 -5.5,5.5 h -24.28 c -3.04,0 -5.51,-2.46 -5.51,-5.5 v -623.9 c -35.88,17.85 -90.71,14.6 -142.37,-12.26 -71.77,-37.32 -110.04,-105.85 -85.48,-153.08 24.56,-47.23 102.64,-55.26 174.41,-17.95 59.89,31.15 89,84.18 88.73,128.11"
         style="fill:#000000;fill-opacity:1;fill-rule:nonzero;stroke:none"
         id="path28"
         inkscape:connector-curvature="0" /><path
         d="m 6262.52,7626.71 h 426.67 c 1.33,0 2.41,-1.09 2.41,-2.42 v -26.81 c 0,-1.33 -1.08,-2.41 -2.41,-2.41 h -426.67 c -1.34,0 -2.42,1.08 -2.42,2.41 v 26.81 c 0,1.33 1.08,2.42 2.42,2.42"
         style="fill:#000000;fill-opacity:1;fill-rule:nonzero;stroke:none"
         id="path30"
         inkscape:connector-curvature="0" /><path
         d="m 6329.4,7561.56 v 0 -679.08 c 0,-3.04 2.47,-5.5 5.5,-5.5 h 24.29 c 3.03,0 5.5,2.46 5.5,5.5 v 623.9 c 35.88,-17.84 90.71,-14.6 142.38,12.26 71.76,37.32 110.03,105.85 85.47,153.08 -24.55,47.23 -102.64,55.26 -174.4,17.95 -59.9,-31.15 -89.01,-84.18 -88.74,-128.11"
         style="fill:#000000;fill-opacity:1;fill-rule:nonzero;stroke:none"
         id="path32"
         inkscape:connector-curvature="0" /><path
         d="m 3421.68,7561.56 v 0 -679.08 c 0,-3.04 2.47,-5.5 5.51,-5.5 h 24.28 c 3.04,0 5.5,2.46 5.5,5.5 v 623.9 c 35.89,-17.84 90.72,-14.6 142.38,12.26 71.77,37.32 110.03,105.85 85.48,153.08 -24.56,47.23 -102.65,55.26 -174.41,17.95 -59.9,-31.15 -89.01,-84.18 -88.74,-128.11"
         style="fill:#000000;fill-opacity:1;fill-rule:nonzero;stroke:none"
         id="path34"
         inkscape:connector-curvature="0" /><path
         d="m 3085.91,10203.3 v -0.5 l -490.87,-100 c -3.84,-0.8 -6.6,-4.1 -6.6,-8.1 v -64.5 -65.53 -488.62 c -35.88,17.84 -90.71,14.6 -142.38,-12.26 -71.76,-37.32 -110.03,-105.85 -85.47,-153.08 24.56,-47.23 102.64,-55.27 174.41,-17.95 59.89,31.14 99.21,84.18 98.94,128.11 v 547.1 c 0,3.45 2.42,6.42 5.8,7.11 l 437.48,88.82 c 4.49,0.9 8.69,-2.6 8.69,-7.1 v -456.39 c -35.88,17.85 -90.71,14.61 -142.38,-12.25 -71.76,-37.32 -110.03,-105.86 -85.47,-153.08 24.55,-47.23 102.64,-55.27 174.4,-17.95 59.9,31.14 96.31,84 92.48,128.11 h 0.35 v 655.66 c 0,5.2 -4.7,9 -9.78,8.1 l -29.6,-5.7"
         style="fill:#000000;fill-opacity:1;fill-rule:nonzero;stroke:none"
         id="path36"
         inkscape:connector-curvature="0" /><path
         d="m 5133.59,10157.3 h -536.84 v -629.42 c -35.89,17.85 -90.72,14.61 -142.39,-12.25 -71.76,-37.32 -110.03,-105.86 -85.47,-153.08 24.56,-47.23 102.64,-55.27 174.41,-17.95 59.9,31.14 99.21,84.17 98.94,128.11 v 568.89 h 451.97 v -512.42 c -35.88,17.84 -90.71,14.6 -142.38,-12.26 -71.76,-37.32 -110.03,-105.85 -85.47,-153.08 24.56,-47.23 102.64,-55.27 174.41,-17.95 59.89,31.14 96.3,84.01 92.47,128.11 h 0.35 v 683.3"
         style="fill:#000000;fill-opacity:1;fill-rule:nonzero;stroke:none"
         id="path38"
         inkscape:connector-curvature="0" /><path
         d="m 12365.9,9380.55 c -27.6,-14.33 -56.9,-20.75 -82.4,-18.15 -12.9,1.33 -36.2,6.41 -46,25.42 -16.5,31.59 14.6,81.64 67.8,109.29 23.6,12.27 48.8,18.65 71.1,18.65 13.6,0 26.2,-2.38 36.5,-7.26 l 0.3,-0.13 c 0.8,-0.35 18.4,-8.95 24.6,-34.48 1.8,-31.56 -28.2,-70.58 -71.9,-93.34 z m 104.6,777.45 h -25.6 c -2.9,0 -5.3,-2.3 -5.3,-5.3 l -0.2,-611.78 c -3.3,2.21 -6.5,4.06 -9.1,5.23 -39.2,18.28 -94.4,13.62 -144.2,-12.26 -75.6,-39.33 -113.1,-111.89 -85.4,-165.2 14,-26.87 41.9,-43.75 78.6,-47.53 5,-0.52 10.2,-0.77 15.5,-0.77 29.3,0 60.8,8.09 90.2,23.39 58.5,30.41 86.7,82.13 85.2,130.1 l 0.3,0.3 5.3,678.52 c 0,2.9 -2.4,5.3 -5.3,5.3"
         style="fill:#000000;fill-opacity:1;fill-rule:nonzero;stroke:none"
         id="path40"
         inkscape:connector-curvature="0" /><path
         d="m 4570.09,7653.71 c 27.56,14.33 56.85,20.76 82.36,18.16 12.96,-1.34 36.17,-6.42 46.04,-25.42 16.43,-31.59 -14.62,-81.64 -67.81,-109.29 -23.61,-12.28 -48.84,-18.65 -71.13,-18.65 -13.62,0 -26.14,2.37 -36.51,7.25 l -0.3,0.13 c -0.76,0.36 -18.35,8.96 -24.57,34.49 -1.82,31.55 28.15,70.58 71.92,93.33 z m -104.62,-777.47 h 25.56 c 2.92,0 5.29,2.37 5.29,5.29 l 0.26,611.81 c 3.29,-2.2 6.43,-4.05 9.1,-5.23 39.21,-18.28 94.41,-13.61 144.13,12.27 75.64,39.33 113.17,111.89 85.46,165.19 -13.96,26.88 -41.87,43.76 -78.58,47.53 -5.08,0.53 -10.25,0.78 -15.5,0.78 -29.33,0 -60.82,-8.1 -90.23,-23.39 -58.51,-30.42 -86.66,-82.14 -85.18,-130.11 l -0.36,-0.29 -5.24,-678.52 c -0.02,-2.94 2.35,-5.33 5.29,-5.33"
         style="fill:#000000;fill-opacity:1;fill-rule:nonzero;stroke:none"
         id="path42"
         inkscape:connector-curvature="0" /><path
         d="m 7463.85,7529.98 c -28.45,13.91 -46.94,40.74 -57.08,70.03 -4.2,12.16 -7.1,24.75 -8.95,37.47 -0.83,5.69 -1.19,44.21 -1.55,49.95 -0.3,4.71 0.11,10.31 -1.52,14.79 -3.12,8.52 -21.08,13.48 -29.47,11.04 -6.5,-1.89 -6.54,-10.27 -6.16,-15.72 0.57,-8.35 0.62,-49.38 0.59,-57.77 -0.05,-16.89 -0.11,-33.78 -0.17,-50.67 -0.07,-22.1 -0.15,-44.19 -0.22,-66.29 -0.09,-25.46 -0.18,-50.92 -0.26,-76.38 -0.09,-26.98 -0.19,-53.97 -0.28,-80.95 -0.09,-26.67 -0.18,-53.34 -0.27,-80 -0.08,-24.51 -0.17,-49.02 -0.25,-73.53 -0.07,-20.51 -0.14,-41.02 -0.21,-61.53 -0.05,-14.68 -0.1,-29.35 -0.15,-44.02 -0.02,-6.99 -0.05,-13.98 -0.07,-20.97 0,-0.08 -0.07,-0.97 0,-1 -35.89,17.85 -90.72,14.61 -142.39,-12.26 -71.76,-37.31 -110.03,-105.85 -85.47,-153.08 24.56,-47.23 86.63,-57.55 158.39,-20.24 59.9,31.15 99.22,84.18 98.94,128.11 v 430.71 c 87.61,2.67 168.81,-103.33 168.81,-103.33 81.75,-143.97 -50.84,-287.41 -50.84,-287.41 -8.78,-27.2 9.18,-21.46 9.18,-21.46 46.89,28.26 101.36,117.43 101.36,117.43 125.39,209.52 -151.96,367.08 -151.96,367.08"
         style="fill:#000000;fill-opacity:1;fill-rule:nonzero;stroke:none"
         id="path44"
         inkscape:connector-curvature="0" /><path
         d="m 10714.2,7575.08 c -37.2,79.47 -104.1,131.38 -188.7,87.55 -20.7,-10.71 -40.4,-24.03 -58.2,-39.17 -12.2,-10.31 -28.9,-16.03 -44.5,-17.84 -2.8,-0.32 -5.5,-0.43 -8.1,-0.36 -7.8,3.19 -14.2,7.41 -17.9,16.39 -2.6,6.25 -2.4,12.16 -3.4,18.63 -0.7,5.43 -1,10.9 -1.4,16.38 -0.3,4.49 0.1,9.83 -1.4,14.11 -2.9,8.13 -19.5,12.86 -27.2,10.53 -6,-1.81 -6,-9.79 -5.7,-15 0,-0.19 0,-0.38 0,-0.58 l -1.8,-558.88 c -33.2,17.02 -83.8,13.93 -131.5,-11.69 -66.3,-35.6 -101.7,-100.98 -79,-146.04 22.7,-45.06 80,-54.91 146.3,-19.31 55.3,29.71 91.7,80.3 91.4,122.21 v 411.95 c 0,0 -0.9,7.57 -0.9,7.56 43.1,-32.84 95.9,-6.53 134.4,20.95 30.5,21.81 83.4,91.57 123.2,83.87 37.4,-7.22 55.4,-63.19 63.1,-95.88 9.8,-41.91 6.7,-86.56 -8.9,-126.56 -3.5,-9.13 -7.1,-19.24 -11.9,-27.76 -5.7,-10.2 -13.1,-20.29 -11.6,-32.97 0.8,-6 3,-10.41 8.5,-6.81 4.2,2.78 7.9,6.67 11.2,10.53 15.4,18.05 26.3,40.66 36,62.38 0.3,0.63 0.5,1.26 0.8,1.89 1.9,3.58 3.4,7.07 4.4,10.35 20.6,65.94 11.8,141.74 -17.2,203.57"
         style="fill:#000000;fill-opacity:1;fill-rule:nonzero;stroke:none"
         id="path46"
         inkscape:connector-curvature="0" /><path
         d="m 7979.61,9963.99 h -451.97 v 77.61 h 451.97 z m -962.83,0 v 77.61 h 465.37 v -77.61 z m -491.36,0 v 77.61 h 451.98 v -77.61 z m 1493.57,193.31 H 6479.93 v -629.42 c -35.89,17.85 -90.72,14.61 -142.38,-12.25 -71.77,-37.32 -110.03,-105.86 -85.48,-153.08 24.56,-47.23 102.64,-55.27 174.41,-17.95 59.9,31.14 99.21,84.17 98.94,128.11 v 466.03 h 451.98 v -409.56 c -35.89,17.84 -90.72,14.6 -142.38,-12.26 -71.77,-37.32 -110.04,-105.85 -85.48,-153.08 24.56,-47.23 102.64,-55.27 174.41,-17.95 59.9,31.14 96.3,84.01 92.48,128.11 h 0.35 v 464.74 h 465.37 v -410.86 c -35.89,17.85 -90.72,14.61 -142.38,-12.25 -71.77,-37.32 -110.04,-105.86 -85.48,-153.08 24.56,-47.23 102.64,-55.27 174.41,-17.95 59.9,31.14 99.21,84.17 98.94,128.11 v 466.03 h 451.97 v -409.56 c -35.88,17.84 -90.71,14.6 -142.38,-12.26 -71.76,-37.32 -110.03,-105.85 -85.47,-153.08 24.56,-47.23 102.64,-55.27 174.41,-17.95 59.89,31.14 96.3,84.01 92.47,128.11 h 0.35 v 683.3"
         style="fill:#000000;fill-opacity:1;fill-rule:nonzero;stroke:none"
         id="path48"
         inkscape:connector-curvature="0" /><path
         d="m 2279.73,7519.85 h -451.98 v 77.64 h 451.98 z m 0,-95.26 h -451.98 v 70 h 451.98 z m -962.84,0 v 70 h 465.37 v -70 z m -491.359,0 v 70 h 451.979 v -70 z m 451.979,172.9 v -77.64 H 825.531 v 77.64 z m 504.75,0 v -77.64 h -465.37 v 77.64 z m 536.85,115.65 H 780.039 v -629.4 c -35.883,17.84 -90.715,14.6 -142.379,-12.26 -71.765,-37.32 -110.031,-105.85 -85.472,-153.08 24.554,-47.23 102.64,-55.26 174.406,-17.95 59.898,31.15 99.211,84.18 98.937,128.11 v 370.77 h 451.979 v -314.3 c -35.89,17.85 -90.72,14.61 -142.38,-12.26 -71.77,-37.31 -110.03,-105.85 -85.48,-153.08 24.56,-47.23 102.65,-55.26 174.41,-17.95 59.9,31.15 96.31,84.01 92.48,128.11 h 0.35 v 369.48 h 465.37 v -315.59 c -35.89,17.84 -90.72,14.6 -142.38,-12.26 -71.77,-37.32 -110.03,-105.85 -85.47,-153.08 24.55,-47.23 102.64,-55.26 174.4,-17.95 59.9,31.15 99.21,84.18 98.94,128.11 v 370.77 h 451.98 v -314.3 c -35.89,17.85 -90.72,14.61 -142.38,-12.26 -71.77,-37.31 -110.03,-105.85 -85.48,-153.08 24.56,-47.23 102.65,-55.26 174.41,-17.95 59.9,31.15 96.3,84.01 92.48,128.11 h 0.35 v 683.29"
         style="fill:#000000;fill-opacity:1;fill-rule:nonzero;stroke:none"
         id="path50"
         inkscape:connector-curvature="0" /><path
         d="m 9726.6,10157.3 h -536.85 v -629.42 c -35.89,17.85 -90.72,14.61 -142.38,-12.25 -71.77,-37.32 -110.03,-105.86 -85.48,-153.08 24.56,-47.23 102.64,-55.27 174.41,-17.95 59.9,31.14 99.21,84.17 98.94,128.11 v 568.89 h 412 39.98 v -512.42 c -35.89,17.84 -90.72,14.6 -142.38,-12.26 -71.77,-37.32 -110.04,-105.85 -85.48,-153.08 24.56,-47.23 102.64,-55.27 174.41,-17.95 59.9,31.14 96.3,84.01 92.48,128.11 h 0.35 v 567.6 h 483.9 v -513.72 c -35.9,17.85 -90.8,14.61 -142.4,-12.25 -71.79,-37.32 -110.06,-105.86 -85.5,-153.08 24.6,-47.23 102.6,-55.27 174.4,-17.95 59.9,31.14 99.2,84.17 98.9,128.11 v 568.89 81.7 34 h -529.3"
         style="fill:#000000;fill-opacity:1;fill-rule:nonzero;stroke:none"
         id="path52"
         inkscape:connector-curvature="0" /><path
         d="M 3743.22,4633.29 H 3343.7 v 561.17 c 35.89,-18.59 90.72,-15.21 142.38,12.76 71.77,38.86 110.03,110.23 85.47,159.41 -24.55,49.19 -102.64,57.55 -174.4,18.69 -59.9,-32.43 -99.21,-87.65 -98.94,-133.4 v -620.33 c 0,-0.03 -0.03,-0.05 -0.03,-0.08 v -55.26 c 0,-0.98 0.79,-1.78 1.78,-1.78 h 4.58 39.16 399.52 c 0.99,0 1.78,0.8 1.78,1.78 v 55.26 c 0,0.98 -0.79,1.78 -1.78,1.78"
         style="fill:#000000;fill-opacity:1;fill-rule:nonzero;stroke:none"
         id="path54"
         inkscape:connector-curvature="0" /><path
         d="m 4715.35,4654.37 c 0.99,0 1.78,0.79 1.78,1.78 v 55.26 c 0,0.98 -0.79,1.78 -1.78,1.78 h -399.52 v 481.27 c 35.88,-18.59 90.71,-15.21 142.38,12.76 71.76,38.86 110.03,110.23 85.47,159.41 -24.56,49.19 -102.64,57.55 -174.4,18.69 -59.9,-32.43 -99.22,-87.65 -98.94,-133.4 v -540.43 c -0.01,-0.03 -0.04,-0.05 -0.04,-0.08 v -55.26 c 0,-0.03 0.03,-0.05 0.04,-0.08 v -24.48 c -0.01,-0.03 -0.04,-0.05 -0.04,-0.08 v -55.26 c 0,-0.98 0.8,-1.78 1.78,-1.78 h 4.58 39.17 399.52 c 0.99,0 1.78,0.8 1.78,1.78 v 55.26 c 0,0.98 -0.79,1.78 -1.78,1.78 h -399.52 v 21.08 h 399.52"
         style="fill:#000000;fill-opacity:1;fill-rule:nonzero;stroke:none"
         id="path56"
         inkscape:connector-curvature="0" /><path
         d="m 5687.48,4734.27 c 0.98,0 1.78,0.79 1.78,1.78 v 55.26 c 0,0.98 -0.8,1.78 -1.78,1.78 h -399.53 v 401.37 c 35.89,-18.59 90.72,-15.21 142.38,12.76 71.77,38.86 110.03,110.23 85.48,159.41 -24.56,49.19 -102.64,57.55 -174.41,18.69 -59.9,-32.43 -99.21,-87.65 -98.94,-133.4 v -460.53 c 0,-0.03 -0.03,-0.05 -0.03,-0.08 v -55.26 c 0,-0.03 0.03,-0.05 0.03,-0.08 v -24.48 c 0,-0.03 -0.03,-0.05 -0.03,-0.08 v -55.26 c 0,-0.03 0.03,-0.05 0.03,-0.08 v -24.48 c 0,-0.03 -0.03,-0.05 -0.03,-0.08 v -55.26 c 0,-0.98 0.8,-1.78 1.78,-1.78 h 4.58 39.16 399.53 c 0.98,0 1.78,0.8 1.78,1.78 v 55.26 c 0,0.98 -0.8,1.78 -1.78,1.78 h -399.53 v 21.08 h 399.53 c 0.98,0 1.78,0.79 1.78,1.78 v 55.26 c 0,0.98 -0.8,1.78 -1.78,1.78 h -399.53 v 21.08 h 399.53"
         style="fill:#000000;fill-opacity:1;fill-rule:nonzero;stroke:none"
         id="path58"
         inkscape:connector-curvature="0" /><path
         d="M 1330.36,3346.45 H 793.512 v -629.41 c -35.887,17.85 -90.719,14.61 -142.379,-12.26 -71.77,-37.31 -110.035,-105.85 -85.477,-153.08 24.555,-47.22 102.641,-55.26 174.407,-17.95 59.898,31.15 99.21,84.18 98.937,128.11 v 568.93 h 491.36 v 115.66"
         style="fill:#000000;fill-opacity:1;fill-rule:nonzero;stroke:none"
         id="path60"
         inkscape:connector-curvature="0" /><path
         d="m 1867.45,3346.45 v -115.66 h 584.67 v -513.75 c -35.88,17.85 -90.72,14.61 -142.38,-12.26 -71.77,-37.31 -110.03,-105.85 -85.48,-153.08 24.56,-47.22 102.65,-55.26 174.41,-17.94 59.9,31.14 99.21,84.17 98.94,128.1 v 568.93 81.62 34.04 h -630.16"
         style="fill:#000000;fill-opacity:1;fill-rule:nonzero;stroke:none"
         id="path62"
         inkscape:connector-curvature="0" /><path
         d="m 13474.8,7519.85 v 77.64 h 452 v -77.64 z m 491.3,193.29 h -1510.7 v -629.4 c -35.9,17.85 -90.7,14.6 -142.4,-12.26 -71.7,-37.31 -110,-105.85 -85.4,-153.08 24.5,-47.23 102.6,-55.26 174.4,-17.95 59.9,31.15 99.2,84.18 98.9,128.11 v 569.07 h 928.4 v -513.89 c -35.9,17.84 -90.7,14.6 -142.4,-12.26 -71.8,-37.32 -110,-105.85 -85.5,-153.08 24.6,-47.23 102.7,-55.26 174.4,-17.95 59.9,31.15 99.3,84.18 99,128.11 v 466.03 h 452 v -409.56 c -35.9,17.85 -90.8,14.61 -142.4,-12.26 -71.8,-37.31 -110,-105.85 -85.5,-153.08 24.6,-47.23 102.7,-55.26 174.4,-17.95 59.9,31.15 96.3,84.01 92.5,128.11 h 0.3 v 683.29"
         style="fill:#000000;fill-opacity:1;fill-rule:nonzero;stroke:none"
         id="path64"
         inkscape:connector-curvature="0" /><path
         d="m 8496.91,7499.3 c -32.55,20.2 -65.89,44.88 -91.89,72.74 8.43,-4.23 18.24,-4.2 37.82,-10.63 99.11,-32.52 165.39,-73.94 180.41,-173.23 0,0 0.04,-0.93 0.12,-2.57 -32.61,46.13 -80.14,84.94 -126.46,113.69 z m 159.07,-177.29 c -1.65,5.12 -3.55,10.18 -5.6,15.18 17.86,47.05 8.05,84.71 8.05,84.71 -23.84,74.39 -92.76,136.13 -159.07,177.29 -54.53,33.84 -79.15,42.62 -95.27,94.13 -0.48,3.77 -1.24,7.64 -2.49,11.06 -0.27,0.73 -0.76,1.35 -1.21,1.99 -0.02,0.09 -0.05,0.17 -0.07,0.26 0,-0.05 -0.02,-0.08 -0.02,-0.12 -4.95,6.72 -19.44,8.48 -27.07,6.26 -6.49,-1.89 -6.16,-9.55 -6.16,-15.72 0,-1.33 0.04,-2.72 0.05,-4.08 l -1.28,-608.09 c -35.89,17.85 -90.72,12.92 -142.38,-13.94 -71.77,-37.32 -110.04,-105.85 -85.48,-153.08 24.56,-47.23 102.64,-55.27 174.41,-17.95 59.89,31.14 83.2,82.58 82.92,126.51 v 459.18 c 16.93,-9.96 18.58,-11.95 45.08,-24.08 94.84,-43.42 205.54,-159.56 166.92,-264.36 -5.14,-13.94 -20.97,-40.21 -27.91,-53.3 -15.78,-29.77 24.95,-21.74 41.28,2.28 36.44,53.61 54.83,114.89 35.3,175.87"
         style="fill:#000000;fill-opacity:1;fill-rule:nonzero;stroke:none"
         id="path66"
         inkscape:connector-curvature="0" /><path
         d="m 1625.98,773.801 c 11.03,6.898 23.82,10.597 35.59,16.199 24.63,11.602 45.32,27.402 60.07,50.5 13.16,20.602 20.86,44.301 24.81,68.301 8.45,51.5 1.15,105.799 -15.15,155.099 -5.3,16 -11.69,31.6 -19.43,46.6 -16.1,31.1 -12.89,28.5 -26.05,60.1 0,0 -15.66,74.92 23.09,108.15 0,0 41.12,19.76 42.62,-24.26 1.62,-47.49 10.81,-101.79 28.14,-149.09 26.82,-73.3 43.01,-164.4 15.89,-237.701 -18.55,-50.097 -60.36,-85.597 -108.51,-106.297 -13.92,-6 -28.67,-10.402 -42.21,-17.3 -9.5,-4.704 -18.7,-10.102 -27.55,-16 -7.54,-5 -14.93,-13.903 -20.24,-2 -1.77,3.898 -1.45,8.296 0,12.296 5.33,14.801 15.7,27.204 28.93,35.403"
         style="fill:#000000;fill-opacity:1;fill-rule:nonzero;stroke:none"
         id="path68"
         inkscape:connector-curvature="0" /><path
         d="m 9474.56,7386 c -32.2,19.98 -65.13,44.74 -89.77,72.74 9.21,-7.34 17.88,-5.76 39.82,-12.96 91.54,-30.04 152.76,-68.3 166.64,-160 0,0 0.08,-1.9 0.25,-4.99 -30.12,42.69 -74.1,78.62 -116.94,105.21 z m -49.95,155.07 c 91.54,-30.04 152.76,-68.3 166.64,-160 0,0 0.03,-0.81 0.1,-2.2 -30.03,41.2 -72.82,75.92 -114.53,101.8 -41.19,25.57 -65.5,37.98 -81.33,67.96 6.74,-1.98 15.29,-3.02 29.12,-7.56 z m 196.86,-318.82 c -1.64,5.12 -3.58,10.16 -5.66,15.15 17.17,44.06 7.93,79.52 7.93,79.52 -1.98,6.16 -4.39,12.2 -7.01,18.17 15.93,42.94 7.01,77.12 7.01,77.12 -22.02,68.71 -85.67,125.74 -146.92,163.75 -50.37,31.26 -73.1,39.36 -87.99,86.95 -0.45,3.47 -1.15,7.04 -2.3,10.21 -0.25,0.67 -0.7,1.24 -1.12,1.83 -0.02,0.09 -0.05,0.16 -0.07,0.24 0,-0.04 -0.01,-0.07 -0.01,-0.11 -4.57,6.21 -17.96,7.83 -25,5.79 -6.01,-1.75 -5.69,-8.83 -5.69,-14.52 0,-1.25 0.03,-2.55 0.04,-3.82 l -1.18,-561.59 c -33.15,16.48 -83.8,11.93 -131.51,-12.88 -66.29,-34.47 -101.63,-97.77 -78.95,-141.39 22.68,-43.62 94.8,-51.05 161.09,-16.58 55.32,28.77 76.84,76.27 76.59,116.85 v 326.41 c 15.63,-9.2 17.16,-11.04 41.63,-22.24 87.6,-40.11 189.85,-147.38 154.18,-244.17 -4.75,-12.88 -19.37,-37.14 -25.78,-49.23 -14.58,-27.49 23.04,-20.08 38.12,2.11 33.66,49.51 50.65,106.11 32.6,162.43"
         style="fill:#000000;fill-opacity:1;fill-rule:nonzero;stroke:none"
         id="path70"
         inkscape:connector-curvature="0" /><path
         d="m 1678,4899 c -15.02,-99.29 -81.31,-140.71 -180.42,-173.23 -19.58,-6.43 -29.38,-6.4 -37.82,-10.63 26,27.86 59.35,52.54 91.9,72.74 46.31,28.75 93.85,67.56 126.46,113.69 -0.08,-1.64 -0.12,-2.57 -0.12,-2.57 z m 32.72,66.18 c 19.54,60.97 1.14,122.25 -35.29,175.86 -16.33,24.02 -57.06,32.05 -41.28,2.28 6.94,-13.09 22.77,-39.36 27.91,-53.3 38.62,-104.8 -72.08,-220.94 -166.93,-264.36 -26.15,-11.97 -28.07,-14.05 -44.39,-23.68 l 0.85,400.32 c 35.88,-17.85 90.72,-12.92 142.38,13.94 71.77,37.32 110.03,105.85 85.47,153.08 -24.55,47.23 -102.64,55.27 -174.4,17.95 -59.9,-31.14 -83.2,-82.58 -82.93,-126.51 v -644.91 l -0.01,-0.02 c 0.02,-8.39 -0.28,-17.33 -0.28,-25.7 0,-6.17 -0.34,-13.83 6.16,-15.72 7.62,-2.22 22.12,-0.46 27.07,6.26 0,-0.04 0.01,-0.07 0.01,-0.12 0.03,0.09 0.05,0.17 0.07,0.26 0.46,0.64 0.95,1.26 1.22,1.99 1.25,3.42 2.01,7.3 2.49,11.06 16.12,51.51 40.73,60.29 95.27,94.13 66.31,41.16 135.23,102.9 159.06,177.29 0,0 9.82,37.66 -8.05,84.71 2.06,5.01 3.96,10.06 5.6,15.19"
         style="fill:#000000;fill-opacity:1;fill-rule:nonzero;stroke:none"
         id="path72"
         inkscape:connector-curvature="0" /><path
         d="m 2587.48,4899 c -15.02,-99.29 -81.3,-140.71 -180.42,-173.23 -14.97,-4.91 -24.23,-6.04 -31.53,-8.19 17.14,32.46 43.46,45.9 88.06,73.58 45.15,28.02 91.49,65.61 124,110.22 -0.07,-1.51 -0.11,-2.38 -0.11,-2.38 z m -84.32,317.24 c 15.99,8.32 30.2,18.24 42.53,29.07 7.62,-13.87 21.16,-36.78 25.85,-49.52 38.62,-104.79 -72.08,-220.93 -166.93,-264.35 -26.18,-11.99 -28.08,-14.06 -44.46,-23.72 l 0.62,294.58 c 35.89,-17.85 90.72,-12.92 142.39,13.94 z m 84.59,-208.67 c -0.19,-3.34 -0.27,-5.4 -0.27,-5.4 -15.02,-99.29 -81.3,-140.71 -180.42,-173.23 -23.76,-7.8 -33.14,-6.09 -43.11,-14.04 26.67,30.31 62.33,57.13 97.19,78.76 46.39,28.79 94,67.69 126.61,113.91 z m 26.32,46.98 c 2.26,5.4 4.36,10.86 6.13,16.4 19.54,60.98 1.14,122.25 -35.29,175.86 -5.22,7.68 -12.93,13.7 -20.5,17.4 29.38,34.39 40.26,74.27 24.22,105.11 -24.55,47.23 -102.64,55.27 -174.4,17.95 -59.9,-31.14 -83.2,-82.58 -82.93,-126.51 v -645.28 0 c 0.03,-8.39 0,-16.98 0,-25.35 0,-6.17 -0.34,-13.83 6.16,-15.72 7.62,-2.22 22.12,-0.46 27.07,6.26 0,-0.04 0.01,-0.07 0.01,-0.12 0.03,0.09 0.05,0.17 0.08,0.26 0.45,0.64 0.94,1.26 1.21,1.99 1.25,3.42 2.01,7.3 2.49,11.06 16.12,51.51 40.73,60.29 95.27,94.13 66.31,41.16 135.23,102.9 159.06,177.29 0,0 9.67,37.01 -7.58,83.51 2.83,6.46 5.45,12.99 7.58,19.66 0,0 10.01,38.4 -8.58,86.1"
         style="fill:#000000;fill-opacity:1;fill-rule:nonzero;stroke:none"
         id="path74"
         inkscape:connector-curvature="0" /><path
         d="m 11781,7556.2 c -3.2,31.87 -15.1,60.66 -33.6,81.45 -33.5,37.61 -81.1,47.98 -125.8,43.18 -64.6,-6.94 -136.2,-72.26 -192.8,-7.46 -4.2,6.61 -18.1,8.38 -25.3,6.28 -6,-1.75 -5.7,-8.82 -5.7,-14.52 0,-1.63 0,-3.33 0,-5 0,-0.24 -0.1,-0.45 -0.1,-0.7 v -560.27 c -33.1,16.49 -83.8,13.5 -131.5,-11.32 -66.3,-34.46 -101.6,-97.76 -78.9,-141.38 22.6,-43.63 94.8,-51.05 161,-16.58 55.4,28.76 82.3,77.74 82,118.32 v 493.77 c 50.6,-9.35 106.1,13.4 143.9,29.15 30.1,12.53 61.6,35.86 93.8,34.19 47.4,-2.45 42.2,-55.02 55.4,-98.79 4.4,-14.53 12.6,-27.78 23.9,-32.86 38.4,-17.19 36.7,53 33.7,82.54"
         style="fill:#000000;fill-opacity:1;fill-rule:nonzero;stroke:none"
         id="path76"
         inkscape:connector-curvature="0" /><path
         d="m 829.418,5113 c -10.438,25.23 -23.227,49.56 -38.219,72.39 -2.051,3.13 -14.566,26.12 -18.949,26.12 -31.898,0 2.129,-53.17 2.129,-53.17 61.668,-131.85 34.672,-259.14 34.672,-259.14 -15.024,-99.28 -81.309,-140.7 -180.418,-173.23 -26.934,-8.83 -35.399,-5.48 -47.192,-17.81 l 1.039,493.93 c 35.887,-17.84 90.723,-12.91 142.383,13.95 71.77,37.32 110.035,105.85 85.477,153.08 -24.555,47.23 -102.641,55.26 -174.406,17.95 -59.899,-31.15 -83.2,-82.58 -82.926,-126.51 v -659.47 c -0.07,-4.92 -0.145,-9.82 -0.145,-13.86 0.004,-6.16 -0.332,-10.73 6.168,-12.62 7.621,-2.21 22.117,-0.46 27.067,6.26 0,-0.04 0.015,-0.07 0.015,-0.11 0.024,0.09 0.047,0.16 0.071,0.25 0.453,0.64 0.945,1.26 1.211,1.99 1.25,3.43 2.011,7.3 2.496,11.06 16.117,51.52 40.73,60.29 95.265,94.13 68.239,42.36 132.512,99.69 159.047,177.3 1.039,3.04 2.02,6.11 2.942,9.21 23.16,77.97 13.019,163.95 -17.727,238.3"
         style="fill:#000000;fill-opacity:1;fill-rule:nonzero;stroke:none"
         id="path78"
         inkscape:connector-curvature="0" /><path
         d="m 13547.3,9628.9 h -20.7 v 666.6 h 20.7 v -666.6"
         style="fill:#000000;fill-opacity:1;fill-rule:nonzero;stroke:none"
         id="path80"
         inkscape:connector-curvature="0" /><path
         d="m 13916.6,9361.83 h -691.7 v 129.24 h 691.7 v -129.24"
         style="fill:#000000;fill-opacity:1;fill-rule:nonzero;stroke:none"
         id="path82"
         inkscape:connector-curvature="0" /><path
         d="m 6599.01,5268.84 -39.86,0.86 c -2.85,0.06 -5.22,-1.28 -5.58,-3.14 l -27.42,-144.17 c -17.82,-4.04 -44.54,-6.46 -70.96,4.57 19.34,9.21 32.75,28.89 32.75,51.75 0,31.67 -25.68,57.35 -57.36,57.35 -25.79,0 -47.59,-17.02 -54.81,-40.44 -10.86,-31.6 5.49,-56.78 5.49,-56.78 33.19,-47.02 78,-61.13 116.62,-61.13 6.91,0 13.6,0.49 20.01,1.28 l -68.3,-359.08 c -0.44,-2.3 2.31,-4.44 5.82,-4.51 l 39.86,-0.86 c 2.85,-0.06 5.22,1.28 5.57,3.14 l 103.99,546.65 c 0.44,2.3 -2.32,4.44 -5.82,4.51"
         style="fill:#000000;fill-opacity:1;fill-rule:nonzero;stroke:none"
         id="path84"
         inkscape:connector-curvature="0" /><path
         d="m 7340.65,5325.95 -39.88,0.51 c -2.85,0.04 -5.24,-1.61 -5.62,-3.86 l -26.59,-157.53 c -17.68,-4.49 -46.31,-8.11 -74.62,3.7 19.35,9.22 32.75,28.89 32.75,51.75 0,31.67 -25.68,57.35 -57.36,57.35 -25.78,0 -47.59,-17.02 -54.81,-40.43 -10.85,-31.61 5.49,-56.79 5.49,-56.79 33.19,-47.02 78,-61.13 116.62,-61.13 8.57,0 16.8,0.74 24.57,1.92 l -19.6,-116.1 c -17.77,-3.72 -43.37,-5.49 -68.69,5.07 19.35,9.22 32.75,28.9 32.75,51.75 0,31.68 -25.68,57.36 -57.35,57.36 -25.79,0 -47.6,-17.02 -54.82,-40.45 -10.85,-31.59 5.49,-56.77 5.49,-56.77 33.2,-47.03 78.01,-61.13 116.62,-61.13 6.45,0 12.71,0.4 18.73,1.1 l -50.4,-298.63 c -0.47,-2.77 2.26,-5.3 5.77,-5.35 l 39.88,-0.51 c 2.85,-0.04 5.24,1.61 5.62,3.86 l 111.22,658.96 c 0.47,2.77 -2.26,5.3 -5.77,5.35"
         style="fill:#000000;fill-opacity:1;fill-rule:nonzero;stroke:none"
         id="path86"
         inkscape:connector-curvature="0" /><path
         d="m 8083.41,5368.59 -39.9,0.25 c -2.85,0.02 -5.26,-1.85 -5.66,-4.39 l -22.15,-141.12 c -17.71,-4.44 -46.14,-7.93 -74.25,3.79 19.35,9.22 32.75,28.9 32.75,51.75 0,31.68 -25.68,57.36 -57.35,57.36 -25.79,0 -47.6,-17.02 -54.82,-40.45 -10.85,-31.59 5.5,-56.77 5.5,-56.77 33.19,-47.03 78,-61.13 116.61,-61.13 8.63,0 16.92,0.74 24.73,1.94 l -18.18,-115.78 c -17.82,-3.94 -44.18,-6.15 -70.26,4.73 19.34,9.22 32.74,28.89 32.74,51.75 0,31.68 -25.67,57.36 -57.35,57.36 -25.79,0 -47.59,-17.02 -54.81,-40.44 -10.86,-31.6 5.49,-56.79 5.49,-56.79 33.19,-47.02 78,-61.13 116.61,-61.13 7.21,0 14.15,0.53 20.81,1.4 l -19.14,-121.94 c -17.51,-3.14 -41.24,-3.95 -64.73,5.85 19.35,9.22 32.75,28.89 32.75,51.75 0,31.68 -25.68,57.35 -57.36,57.35 -25.78,0 -47.59,-17.02 -54.81,-40.44 -10.85,-31.6 5.49,-56.78 5.49,-56.78 33.19,-47.02 78,-61.13 116.62,-61.13 5.26,0 10.36,0.31 15.35,0.79 l -36.86,-234.74 c -0.49,-3.13 2.22,-5.95 5.73,-5.98 l 39.9,-0.25 c 2.85,-0.02 5.25,1.85 5.65,4.39 l 116.63,742.82 c 0.49,3.13 -2.22,5.95 -5.73,5.98"
         style="fill:#000000;fill-opacity:1;fill-rule:nonzero;stroke:none"
         id="path88"
         inkscape:connector-curvature="0" /><path
         d="m 8980.29,5410.42 h -39.92 c -2.85,0 -5.27,-2.09 -5.69,-4.91 l -20.59,-139.35 c -17.06,-4.91 -48.19,-10.28 -78.92,2.54 19.35,9.22 32.75,28.89 32.75,51.75 0,31.68 -25.68,57.36 -57.35,57.36 -25.79,0 -47.6,-17.03 -54.82,-40.44 -10.85,-31.6 5.49,-56.79 5.49,-56.79 33.2,-47.02 78.01,-61.13 116.62,-61.13 10.51,0 20.51,1.09 29.74,2.8 l -17.01,-115.13 c -17.49,-4.69 -47.16,-9 -76.45,3.22 19.35,9.22 32.75,28.9 32.75,51.75 0,31.68 -25.68,57.36 -57.35,57.36 -25.79,0 -47.6,-17.02 -54.82,-40.44 -10.85,-31.6 5.49,-56.78 5.49,-56.78 33.2,-47.02 78.01,-61.13 116.62,-61.13 9.58,0 18.76,0.87 27.31,2.32 l -17.92,-121.25 c -17.8,-4.23 -45.29,-7.1 -72.45,4.23 19.34,9.22 32.75,28.9 32.75,51.75 0,31.68 -25.68,57.36 -57.36,57.36 -25.79,0 -47.6,-17.02 -54.81,-40.45 -10.85,-31.59 5.49,-56.77 5.49,-56.77 33.19,-47.03 78,-61.14 116.62,-61.14 8.13,0 15.95,0.68 23.37,1.76 l -17.67,-119.56 c -17.82,-4.09 -44.76,-6.65 -71.41,4.46 19.34,9.22 32.75,28.9 32.75,51.76 0,31.67 -25.68,57.35 -57.36,57.35 -25.79,0 -47.59,-17.02 -54.81,-40.44 -10.86,-31.6 5.49,-56.78 5.49,-56.78 33.19,-47.02 78,-61.13 116.61,-61.13 7.77,0 15.23,0.62 22.35,1.61 l -23.02,-155.77 c -0.51,-3.47 2.18,-6.59 5.69,-6.59 h 39.92 c 2.85,0 5.27,2.09 5.68,4.91 l 121.93,825.1 c 0.51,3.47 -2.18,6.59 -5.69,6.59"
         style="fill:#000000;fill-opacity:1;fill-rule:nonzero;stroke:none"
         id="path90"
         inkscape:connector-curvature="0" /><path
         d="m 9988.94,5150.28 v 87.03 h -243.42 v -87.03 h -176.04 v -31.84 H 10165 v 31.84 h -176.06"
         style="fill:#000000;fill-opacity:1;fill-rule:nonzero;stroke:none"
         id="path92"
         inkscape:connector-curvature="0" /><path
         d="m 9569.48,4823.12 v -31.84 h 176.04 v -87.04 h 243.42 v 87.04 H 10165 v 31.84 h -595.52"
         style="fill:#000000;fill-opacity:1;fill-rule:nonzero;stroke:none"
         id="path94"
         inkscape:connector-curvature="0" /><path
         d="m 10779.9,5254.01 c 12.6,-8.09 23.7,-18.33 32.8,-30.25 0,0 65.6,-86.24 66.5,-87.35 7.1,-9.38 19.1,-18.51 9.3,-31.16 -4.7,-5.97 -11.6,-10.19 -16.6,-16.02 -4.6,-5.31 -9.1,-10.73 -13.4,-16.24 -10.2,-12.91 -20.4,-26.5 -27.4,-41.5 -2.5,-5.55 -3.1,-10.83 -4.6,-16.5 -3.3,-11.93 -4.1,-24.96 -3.3,-37.24 0.6,-11.1 2.8,-22.44 7.3,-32.65 4.4,-9.94 12.4,-18.34 18.9,-26.94 6,-7.95 12,-15.83 18.1,-23.76 4.4,-5.85 8.8,-11.7 13.3,-17.55 3.2,-4.29 10.7,-10.93 11.4,-16.41 0.2,-1.3 0,-2.63 -0.2,-3.92 -1.9,-8.72 -8.6,-15.7 -17.4,-17.61 -0.5,-0.13 -1.2,-0.23 -1.7,-0.07 -0.6,0.16 -1,0.55 -1.5,0.94 -17.9,15.81 -44.3,28.59 -68.8,24.5 -9.1,-1.52 -14.2,-9.89 -18.1,-17.47 -8.7,-16.84 -6.6,-36.85 0.1,-53.99 7.3,-18.63 19.6,-36.05 29.5,-53.36 0.3,-0.57 0.7,-1.15 0.7,-1.79 0.8,-6.14 -12,-10.17 -16.2,-11.05 -4.1,-0.88 -10,6.27 -13,8.78 -4.7,3.96 -9.2,8.04 -13.7,12.25 -8.7,8.23 -17,16.94 -24.7,26.14 -13.9,16.63 -28.6,35.95 -30.4,58.32 -0.8,8.84 -0.8,18.94 0.7,27.67 2.5,14.66 9,28.68 20.2,38.68 7.2,6.4 15.9,10.98 25.1,13.63 4.7,1.33 9.4,2.18 14.2,2.53 7,0.51 12.3,-0.49 19.2,-2.08 5.3,-1.25 14.5,-2.18 15.8,4.94 1.1,6.58 -4.4,14.51 -7.7,19.62 -11.7,19.23 -24.3,38.01 -38,55.91 -5.3,7.01 -10.8,13.94 -16.8,20.39 -5.3,5.66 -10.5,11.94 -17.7,15.17 -1.6,0.7 -3.2,1.25 -4.6,2.16 -5.2,3.3 -3.3,12.62 -2.1,17.65 1.5,6.05 5.1,10.76 9.7,14.71 18.8,15.88 36.5,34.01 51.2,53.73 11.1,14.91 26.5,36.64 17.3,55.99 -9.5,20.16 -22,40.68 -36.5,57.7 -2.9,3.47 -6,6.82 -9.3,9.99 -3.6,3.47 -0.2,10.25 2.9,13.43 5.3,5.45 12.1,4.3 18.3,0.86 l 1.2,-0.78"
         style="fill:#000000;fill-opacity:1;fill-rule:nonzero;stroke:none"
         id="path96"
         inkscape:connector-curvature="0" /><path
         d="m 11726.1,4867.06 c -67.8,0 -125.2,-36.04 -125.2,-78.7 0,-42.68 57.4,-78.72 125.2,-78.72 67.9,0 125.3,36.04 125.3,78.72 0,42.66 -57.4,78.7 -125.3,78.7 z m 0,-198.87 c -93.4,0 -166.7,52.78 -166.7,120.17 0,67.37 73.3,120.15 166.7,120.15 93.5,0 166.7,-52.78 166.7,-120.15 0,-67.39 -73.2,-120.17 -166.7,-120.17"
         style="fill:#000000;fill-opacity:1;fill-rule:nonzero;stroke:none"
         id="path98"
         inkscape:connector-curvature="0" /><path
         d="m 11872.1,4922.04 c 0,17.26 14,31.25 31.2,31.25 17.3,0 31.3,-13.99 31.3,-31.25 0,-17.25 -14,-31.24 -31.3,-31.24 -17.2,0 -31.2,13.99 -31.2,31.24"
         style="fill:#000000;fill-opacity:1;fill-rule:nonzero;stroke:none"
         id="path100"
         inkscape:connector-curvature="0" /><path
         d="m 10016.7,3205.08 -39.86,0.86 c -2.85,0.07 -5.22,-1.27 -5.58,-3.14 l -27.42,-144.17 c -17.82,-4.03 -44.54,-6.46 -70.96,4.57 19.34,9.22 32.75,28.89 32.75,51.75 0,31.68 -25.68,57.36 -57.36,57.36 -25.79,0 -47.59,-17.02 -54.81,-40.44 -10.86,-31.6 5.49,-56.79 5.49,-56.79 33.19,-47.02 78,-61.13 116.62,-61.13 6.91,0 13.6,0.49 20.01,1.29 l -68.3,-359.09 c -0.44,-2.3 2.32,-4.43 5.82,-4.51 l 39.86,-0.86 c 2.85,-0.06 5.22,1.28 5.57,3.15 l 103.97,546.65 c 0.5,2.3 -2.3,4.43 -5.8,4.5"
         style="fill:#000000;fill-opacity:1;fill-rule:nonzero;stroke:none"
         id="path102"
         inkscape:connector-curvature="0" /><path
         d="m 10059.2,3167.34 c 0,17.26 14,31.25 31.2,31.25 17.3,0 31.3,-13.99 31.3,-31.25 0,-17.25 -14,-31.24 -31.3,-31.24 -17.2,0 -31.2,13.99 -31.2,31.24"
         style="fill:#000000;fill-opacity:1;fill-rule:nonzero;stroke:none"
         id="path104"
         inkscape:connector-curvature="0" /><path
         d="m 10798.5,3262.19 -39.9,0.51 c -2.9,0.04 -5.3,-1.6 -5.6,-3.85 l -26.6,-157.53 c -17.7,-4.49 -46.3,-8.12 -74.6,3.69 19.3,9.22 32.7,28.9 32.7,51.75 0,31.68 -25.7,57.36 -57.3,57.36 -25.8,0 -47.6,-17.02 -54.9,-40.44 -10.8,-31.6 5.5,-56.78 5.5,-56.78 33.2,-47.03 78,-61.14 116.7,-61.14 8.5,0 16.8,0.74 24.5,1.92 l -19.6,-116.1 c -17.8,-3.71 -43.4,-5.48 -68.7,5.08 19.4,9.21 32.8,28.89 32.8,51.75 0,31.67 -25.7,57.35 -57.4,57.35 -25.8,0 -47.6,-17.02 -54.8,-40.43 -10.8,-31.61 5.5,-56.79 5.5,-56.79 33.2,-47.02 78,-61.13 116.6,-61.13 6.5,0 12.7,0.4 18.8,1.1 l -50.4,-298.62 c -0.5,-2.78 2.2,-5.31 5.7,-5.35 l 39.9,-0.51 c 2.8,-0.04 5.2,1.6 5.6,3.85 l 111.2,658.96 c 0.5,2.77 -2.2,5.3 -5.7,5.35"
         style="fill:#000000;fill-opacity:1;fill-rule:nonzero;stroke:none"
         id="path106"
         inkscape:connector-curvature="0" /><path
         d="m 10839.4,3226.52 c 0,17.25 14,31.24 31.2,31.24 17.3,0 31.3,-13.99 31.3,-31.24 0,-17.26 -14,-31.25 -31.3,-31.25 -17.2,0 -31.2,13.99 -31.2,31.25"
         style="fill:#000000;fill-opacity:1;fill-rule:nonzero;stroke:none"
         id="path108"
         inkscape:connector-curvature="0" /><path
         d="m 11669,3304.83 -39.9,0.25 c -2.9,0.02 -5.3,-1.84 -5.7,-4.38 l -22.1,-141.12 c -17.7,-4.45 -46.2,-7.94 -74.3,3.79 19.4,9.21 32.8,28.89 32.8,51.75 0,31.68 -25.7,57.35 -57.4,57.35 -25.8,0 -47.6,-17.02 -54.8,-40.44 -10.8,-31.6 5.5,-56.78 5.5,-56.78 33.2,-47.02 78,-61.13 116.6,-61.13 8.7,0 16.9,0.74 24.8,1.94 l -18.2,-115.77 c -17.8,-3.94 -44.2,-6.16 -70.3,4.72 19.4,9.22 32.8,28.9 32.8,51.75 0,31.68 -25.7,57.36 -57.4,57.36 -25.8,0 -47.6,-17.02 -54.8,-40.44 -10.9,-31.6 5.5,-56.78 5.5,-56.78 33.2,-47.03 78,-61.14 116.6,-61.14 7.2,0 14.2,0.54 20.8,1.4 l -19.1,-121.93 c -17.5,-3.15 -41.3,-3.96 -64.8,5.84 19.4,9.22 32.8,28.9 32.8,51.75 0,31.68 -25.7,57.36 -57.4,57.36 -25.8,0 -47.6,-17.02 -54.8,-40.44 -10.8,-31.6 5.5,-56.79 5.5,-56.79 33.2,-47.02 78,-61.13 116.6,-61.13 5.3,0 10.4,0.32 15.4,0.79 l -36.9,-234.74 c -0.5,-3.12 2.2,-5.95 5.7,-5.97 l 39.9,-0.26 c 2.9,-0.02 5.3,1.85 5.7,4.39 l 116.6,742.83 c 0.5,3.12 -2.2,5.95 -5.7,5.97"
         style="fill:#000000;fill-opacity:1;fill-rule:nonzero;stroke:none"
         id="path110"
         inkscape:connector-curvature="0" /><path
         d="m 11715,3272.47 c 0,17.26 14,31.25 31.3,31.25 17.2,0 31.2,-13.99 31.2,-31.25 0,-17.25 -14,-31.24 -31.2,-31.24 -17.3,0 -31.3,13.99 -31.3,31.24"
         style="fill:#000000;fill-opacity:1;fill-rule:nonzero;stroke:none"
         id="path112"
         inkscape:connector-curvature="0" /><path
         d="m 12546.6,3346.67 h -39.9 c -2.9,0 -5.3,-2.09 -5.7,-4.91 l -20.6,-139.35 c -17.1,-4.91 -48.2,-10.29 -78.9,2.53 19.3,9.22 32.7,28.9 32.7,51.75 0,31.68 -25.7,57.36 -57.3,57.36 -25.8,0 -47.6,-17.02 -54.9,-40.44 -10.8,-31.6 5.5,-56.78 5.5,-56.78 33.2,-47.03 78,-61.13 116.6,-61.13 10.6,0 20.6,1.08 29.8,2.79 l -17,-115.13 c -17.5,-4.69 -47.2,-8.99 -76.5,3.23 19.4,9.22 32.8,28.89 32.8,51.75 0,31.68 -25.7,57.36 -57.4,57.36 -25.8,0 -47.6,-17.03 -54.8,-40.44 -10.8,-31.6 5.5,-56.79 5.5,-56.79 33.2,-47.02 78,-61.13 116.6,-61.13 9.6,0 18.8,0.88 27.3,2.33 l -17.9,-121.26 c -17.8,-4.22 -45.3,-7.1 -72.4,4.24 19.3,9.21 32.7,28.89 32.7,51.75 0,31.67 -25.7,57.35 -57.4,57.35 -25.7,0 -47.5,-17.02 -54.8,-40.44 -10.8,-31.6 5.5,-56.78 5.5,-56.78 33.2,-47.02 78,-61.13 116.6,-61.13 8.2,0 16,0.67 23.4,1.75 l -17.7,-119.56 c -17.8,-4.09 -44.7,-6.65 -71.4,4.47 19.4,9.22 32.8,28.89 32.8,51.75 0,31.68 -25.7,57.36 -57.4,57.36 -25.8,0 -47.6,-17.03 -54.8,-40.45 -10.8,-31.6 5.5,-56.78 5.5,-56.78 33.2,-47.02 78,-61.13 116.6,-61.13 7.8,0 15.2,0.62 22.4,1.61 l -23,-155.77 c -0.6,-3.47 2.1,-6.59 5.6,-6.59 h 40 c 2.8,0 5.2,2.09 5.6,4.91 l 122,825.11 c 0.5,3.47 -2.2,6.59 -5.7,6.59"
         style="fill:#000000;fill-opacity:1;fill-rule:nonzero;stroke:none"
         id="path114"
         inkscape:connector-curvature="0" /><path
         d="m 12605.3,3314.05 c 0,17.26 14,31.24 31.3,31.24 17.2,0 31.2,-13.98 31.2,-31.24 0,-17.26 -14,-31.25 -31.2,-31.25 -17.3,0 -31.3,13.99 -31.3,31.25"
         style="fill:#000000;fill-opacity:1;fill-rule:nonzero;stroke:none"
         id="path116"
         inkscape:connector-curvature="0" /><path
         d="m 6321.1,3018.2 c -10.44,25.24 -23.23,49.56 -38.22,72.4 -2.05,3.12 -14.57,26.11 -18.95,26.11 -31.9,0 2.13,-53.16 2.13,-53.16 61.67,-131.85 34.67,-259.14 34.67,-259.14 -15.03,-99.29 -81.31,-140.71 -180.42,-173.23 -26.93,-8.84 -35.4,-5.48 -47.19,-17.82 l 1.04,493.94 c 35.89,-17.85 90.72,-12.92 142.38,13.94 71.77,37.32 110.04,105.86 85.48,153.08 -24.56,47.23 -102.64,55.27 -174.41,17.95 -59.9,-31.14 -83.2,-82.57 -82.92,-126.51 v -659.42 c -0.08,-4.94 -0.15,-9.86 -0.15,-13.9 0.01,-6.17 -0.33,-10.73 6.17,-12.62 7.62,-2.22 22.12,-0.46 27.07,6.26 0,-0.05 0.01,-0.08 0.01,-0.12 0.02,0.09 0.05,0.17 0.07,0.26 0.46,0.64 0.95,1.26 1.21,1.99 1.25,3.42 2.01,7.29 2.5,11.05 16.11,51.52 40.73,60.29 95.27,94.14 68.23,42.35 132.5,99.68 159.04,177.3 1.04,3.04 2.02,6.11 2.94,9.21 23.16,77.96 13.02,163.95 -17.72,238.29"
         style="fill:#000000;fill-opacity:1;fill-rule:nonzero;stroke:none"
         id="path118"
         inkscape:connector-curvature="0" /><path
         d="m 6320.25,3346.58 c 0,17.26 13.99,31.25 31.25,31.25 17.25,0 31.24,-13.99 31.24,-31.25 0,-17.25 -13.99,-31.24 -31.24,-31.24 -17.26,0 -31.25,13.99 -31.25,31.24"
         style="fill:#000000;fill-opacity:1;fill-rule:nonzero;stroke:none"
         id="path120"
         inkscape:connector-curvature="0" /><path
         d="m 7276.14,2803.66 c -15.02,-99.28 -81.3,-140.7 -180.41,-173.22 -19.58,-6.43 -29.39,-6.4 -37.82,-10.63 26,27.86 59.34,52.54 91.89,72.74 46.32,28.74 93.85,67.56 126.46,113.69 -0.08,-1.65 -0.12,-2.58 -0.12,-2.58 z m 32.73,66.18 c 19.53,60.98 1.14,122.25 -35.3,175.86 -16.33,24.03 -57.06,32.05 -41.28,2.29 6.94,-13.09 22.77,-39.36 27.91,-53.31 38.62,-104.79 -72.08,-220.93 -166.93,-264.35 -26.14,-11.97 -28.07,-14.06 -44.38,-23.68 l 0.84,400.31 c 35.89,-17.84 90.72,-12.92 142.38,13.95 71.77,37.31 110.04,105.85 85.48,153.08 -24.56,47.23 -102.64,55.26 -174.41,17.95 -59.9,-31.15 -83.2,-82.58 -82.92,-126.51 v -644.92 l -0.02,-0.01 c 0.03,-8.39 -0.28,-17.34 -0.28,-25.7 0,-6.17 -0.34,-13.83 6.16,-15.72 7.63,-2.22 22.12,-0.47 27.07,6.26 0,-0.05 0.02,-0.08 0.02,-0.12 0.02,0.09 0.05,0.17 0.07,0.26 0.45,0.64 0.94,1.26 1.21,1.99 1.25,3.42 2.01,7.29 2.5,11.05 16.11,51.52 40.73,60.29 95.26,94.14 66.31,41.15 135.23,102.89 159.07,177.29 0,0 9.81,37.65 -8.05,84.71 2.05,5 3.95,10.05 5.6,15.18"
         style="fill:#000000;fill-opacity:1;fill-rule:nonzero;stroke:none"
         id="path122"
         inkscape:connector-curvature="0" /><path
         d="m 7285.55,3347.32 c 0,17.26 13.99,31.25 31.24,31.25 17.26,0 31.25,-13.99 31.25,-31.25 0,-17.25 -13.99,-31.24 -31.25,-31.24 -17.25,0 -31.24,13.99 -31.24,31.24"
         style="fill:#000000;fill-opacity:1;fill-rule:nonzero;stroke:none"
         id="path124"
         inkscape:connector-curvature="0" /><path
         d="m 8161.55,2803.6 c -15.03,-99.29 -81.31,-140.7 -180.42,-173.23 -14.98,-4.91 -24.23,-6.04 -31.53,-8.19 17.14,32.46 43.45,45.9 88.05,73.58 45.16,28.02 91.49,65.61 124.01,110.22 -0.08,-1.5 -0.11,-2.38 -0.11,-2.38 z m -84.33,317.24 c 15.99,8.32 30.2,18.24 42.54,29.07 7.61,-13.87 21.15,-36.78 25.84,-49.51 38.63,-104.8 -72.08,-220.94 -166.92,-264.36 -26.19,-11.99 -28.08,-14.06 -44.46,-23.72 l 0.62,294.58 c 35.88,-17.85 90.72,-12.92 142.38,13.94 z m 84.6,-208.66 c -0.19,-3.35 -0.27,-5.41 -0.27,-5.41 -15.03,-99.29 -81.31,-140.71 -180.42,-173.23 -23.76,-7.8 -33.14,-6.09 -43.12,-14.04 26.67,30.32 62.33,57.13 97.19,78.76 46.39,28.8 94.01,67.69 126.62,113.92 z m 26.31,46.97 c 2.26,5.41 4.36,10.86 6.14,16.4 19.53,60.98 1.14,122.26 -35.3,175.87 -5.22,7.67 -12.93,13.69 -20.49,17.39 29.37,34.39 40.25,74.27 24.22,105.11 -24.56,47.23 -102.64,55.27 -174.41,17.95 -59.9,-31.14 -83.2,-82.57 -82.93,-126.51 v -645.28 0 c 0.03,-8.39 0,-16.98 0,-25.35 0.01,-6.17 -0.33,-13.83 6.17,-15.72 7.62,-2.22 22.12,-0.46 27.06,6.26 0.01,-0.04 0.02,-0.07 0.02,-0.11 0.02,0.09 0.05,0.16 0.07,0.25 0.45,0.64 0.94,1.26 1.21,1.99 1.25,3.42 2.01,7.3 2.5,11.06 16.11,51.51 40.73,60.29 95.26,94.13 66.32,41.16 135.24,102.9 159.07,177.29 0,0 9.66,37.01 -7.58,83.51 2.83,6.46 5.44,12.99 7.58,19.66 0,0 10.01,38.4 -8.59,86.1"
         style="fill:#000000;fill-opacity:1;fill-rule:nonzero;stroke:none"
         id="path126"
         inkscape:connector-curvature="0" /><path
         d="m 8168.18,3347.39 c 0,17.26 13.99,31.24 31.25,31.24 17.25,0 31.24,-13.98 31.24,-31.24 0,-17.26 -13.99,-31.25 -31.24,-31.25 -17.26,0 -31.25,13.99 -31.25,31.25"
         style="fill:#000000;fill-opacity:1;fill-rule:nonzero;stroke:none"
         id="path128"
         inkscape:connector-curvature="0" /><path
         d="m 8910.6,2693.01 c -8.59,-2.39 -15.29,-3.69 -20.82,-4.71 15.91,20.18 39.34,29.96 77.76,50.73 42.81,23.13 86.54,54.03 118.18,90.83 -18.27,-77.5 -81.97,-110.91 -175.12,-136.85 z m 0,-80.12 c -8.59,-2.39 -15.28,-3.69 -20.82,-4.71 15.91,20.18 39.34,29.96 77.76,50.72 42.81,23.14 86.54,54.03 118.18,90.83 -18.27,-77.49 -81.97,-110.9 -175.12,-136.84 z m 54.48,203.1 c 43.83,23.49 88.63,55.04 120.38,92.71 -18.66,-76.61 -82.21,-109.76 -174.86,-135.56 -7.39,-2.06 -13.33,-3.29 -18.39,-4.25 22.19,17.74 47.72,33.63 72.87,47.1 z m 153,144.77 c 1.17,2.81 2.37,5.61 3.37,8.47 18.66,53.19 -0.55,107.16 -37.67,154.67 -16.63,21.28 -57.41,28.88 -41.25,2.57 7.12,-11.57 23.28,-34.82 28.61,-47.12 40.01,-92.4 -68.93,-192.7 -163.03,-229.46 -25.07,-9.79 -27.7,-11.81 -42.43,-19.35 l 0.59,276.36 c 35.88,-17.85 90.72,-12.92 142.38,13.94 71.77,37.32 110.03,105.86 85.48,153.08 -24.56,47.23 -102.65,55.27 -174.41,17.95 -59.9,-31.14 -83.2,-82.57 -82.93,-126.51 v -645.28 0 c 0.03,-8.39 0,-16.98 0,-25.35 0,-6.17 -0.33,-13.83 6.16,-15.72 7.62,-2.21 22.12,-0.46 27.07,6.26 0,-0.04 0.02,-0.07 0.02,-0.11 0.02,0.09 0.05,0.17 0.08,0.27 0.45,0.63 0.94,1.25 1.2,1.97 1.06,2.89 1.75,6.11 2.26,9.31 15.42,45.44 39.88,52.85 93.96,82.07 65.67,35.49 133.69,89.13 156.52,154.55 0,0 8.05,28.65 -5.64,66.27 2.08,4.56 4,9.17 5.64,13.85 0,0 8.05,28.66 -5.64,66.28 2.08,4.56 4,9.16 5.64,13.85 0,0 8.17,29.11 -5.98,67.18"
         style="fill:#000000;fill-opacity:1;fill-rule:nonzero;stroke:none"
         id="path130"
         inkscape:connector-curvature="0" /><path
         d="m 9099.61,3347.39 c 0,17.26 13.99,31.24 31.25,31.24 17.25,0 31.24,-13.98 31.24,-31.24 0,-17.26 -13.99,-31.25 -31.24,-31.25 -17.26,0 -31.25,13.99 -31.25,31.25"
         style="fill:#000000;fill-opacity:1;fill-rule:nonzero;stroke:none"
         id="path132"
         inkscape:connector-curvature="0" /><path
         d="m 5181.85,3190.26 c 12.6,-8.1 23.68,-18.34 32.75,-30.26 0,0 65.62,-86.23 66.46,-87.35 7.14,-9.37 19.15,-18.51 9.3,-31.16 -4.64,-5.96 -11.53,-10.18 -16.56,-16.01 -4.58,-5.32 -9.06,-10.73 -13.42,-16.24 -10.2,-12.92 -20.42,-26.5 -27.35,-41.51 -2.57,-5.54 -3.09,-10.83 -4.65,-16.5 -3.28,-11.93 -4.06,-24.96 -3.31,-37.24 0.67,-11.1 2.86,-22.44 7.36,-32.65 4.39,-9.94 12.37,-18.33 18.85,-26.94 5.98,-7.94 12.08,-15.82 18.09,-23.75 4.43,-5.85 8.87,-11.7 13.3,-17.55 3.25,-4.29 10.74,-10.94 11.49,-16.41 0.17,-1.31 0,-2.64 -0.28,-3.92 -1.88,-8.73 -8.58,-15.7 -17.34,-17.62 -0.58,-0.13 -1.19,-0.23 -1.76,-0.07 -0.56,0.16 -1.01,0.56 -1.45,0.94 -17.88,15.81 -44.3,28.6 -68.84,24.5 -9.07,-1.51 -14.21,-9.88 -18.11,-17.46 -8.66,-16.84 -6.6,-36.86 0.13,-54 7.3,-18.62 19.55,-36.04 29.5,-53.36 0.32,-0.56 0.65,-1.14 0.74,-1.79 0.79,-6.14 -12.05,-10.17 -16.21,-11.05 -4.13,-0.87 -10.07,6.27 -13.04,8.79 -4.66,3.96 -9.23,8.04 -13.68,12.24 -8.71,8.24 -16.98,16.95 -24.69,26.14 -13.92,16.63 -28.6,35.95 -30.46,58.33 -0.73,8.83 -0.78,18.94 0.71,27.66 2.51,14.66 9.02,28.69 20.24,38.69 7.19,6.4 15.9,10.97 25.13,13.62 4.63,1.33 9.39,2.18 14.19,2.53 7.01,0.51 12.28,-0.48 19.12,-2.08 5.35,-1.25 14.57,-2.17 15.82,4.94 1.16,6.59 -4.36,14.51 -7.66,19.63 -11.69,19.23 -24.36,38 -38,55.9 -5.34,7.01 -10.83,13.94 -16.83,20.4 -5.26,5.65 -10.52,11.93 -17.71,15.17 -1.55,0.69 -3.18,1.24 -4.61,2.16 -5.15,3.3 -3.25,12.62 -2.04,17.64 1.45,6.05 5.04,10.76 9.72,14.72 18.77,15.88 36.46,34 51.13,53.73 11.08,14.9 26.53,36.63 17.35,55.98 -9.57,20.16 -22.03,40.69 -36.49,57.7 -2.95,3.48 -6.06,6.82 -9.34,9.99 -3.6,3.48 -0.16,10.25 2.93,13.44 5.26,5.44 12.12,4.3 18.31,0.85 l 1.21,-0.77"
         style="fill:#000000;fill-opacity:1;fill-rule:nonzero;stroke:none"
         id="path134"
         inkscape:connector-curvature="0" /><path
         d="m 5339.58,3060.25 c 0,17.25 13.99,31.24 31.24,31.24 17.26,0 31.25,-13.99 31.25,-31.24 0,-17.26 -13.99,-31.25 -31.25,-31.25 -17.25,0 -31.24,13.99 -31.24,31.25"
         style="fill:#000000;fill-opacity:1;fill-rule:nonzero;stroke:none"
         id="path136"
         inkscape:connector-curvature="0" /><path
         d="m 3298.63,3163.62 v 0 -679.08 c 0,-3.04 2.46,-5.5 5.5,-5.5 h 24.28 c 3.04,0 5.5,2.46 5.5,5.5 v 623.9 c 35.89,-17.85 90.72,-14.61 142.38,12.26 71.77,37.31 110.03,105.85 85.48,153.08 -24.56,47.23 -102.65,55.26 -174.41,17.95 -59.9,-31.15 -89.01,-84.18 -88.73,-128.11"
         style="fill:#000000;fill-opacity:1;fill-rule:nonzero;stroke:none"
         id="path138"
         inkscape:connector-curvature="0" /><path
         d="m 3579.72,3346.45 c 0,17.25 13.99,31.24 31.24,31.24 17.26,0 31.25,-13.99 31.25,-31.24 0,-17.26 -13.99,-31.25 -31.25,-31.25 -17.25,0 -31.24,13.99 -31.24,31.25"
         style="fill:#000000;fill-opacity:1;fill-rule:nonzero;stroke:none"
         id="path140"
         inkscape:connector-curvature="0" /><path
         d="m 4310.48,3255.77 c 27.56,14.33 56.85,20.76 82.36,18.16 12.96,-1.34 36.16,-6.42 46.04,-25.43 16.43,-31.58 -14.62,-81.63 -67.81,-109.28 -23.61,-12.28 -48.84,-18.66 -71.13,-18.66 -13.62,0 -26.14,2.38 -36.52,7.26 l -0.29,0.13 c -0.76,0.36 -18.35,8.96 -24.57,34.48 -1.82,31.56 28.15,70.59 71.92,93.34 z M 4205.86,2478.3 h 25.56 c 2.92,0 5.29,2.36 5.29,5.28 l 0.26,611.82 c 3.29,-2.2 6.43,-4.06 9.1,-5.23 39.21,-18.28 94.41,-13.61 144.13,12.27 75.63,39.33 113.17,111.89 85.46,165.19 -13.96,26.87 -41.87,43.76 -78.58,47.53 -5.08,0.53 -10.25,0.78 -15.5,0.78 -29.33,0 -60.82,-8.1 -90.23,-23.39 -58.51,-30.42 -86.66,-82.14 -85.18,-130.11 l -0.36,-0.29 -5.24,-678.52 c -0.02,-2.94 2.35,-5.33 5.29,-5.33"
         style="fill:#000000;fill-opacity:1;fill-rule:nonzero;stroke:none"
         id="path142"
         inkscape:connector-curvature="0" /><path
         d="m 4493.72,3347.18 c 0,17.26 13.99,31.25 31.24,31.25 17.26,0 31.25,-13.99 31.25,-31.25 0,-17.25 -13.99,-31.24 -31.25,-31.24 -17.25,0 -31.24,13.99 -31.24,31.24"
         style="fill:#000000;fill-opacity:1;fill-rule:nonzero;stroke:none"
         id="path144"
         inkscape:connector-curvature="0" /><path
         d="m 11509.4,5232.97 v -31.84 h 111.1 v -87.03 h 197 v 87.03 h 111 v 31.84 h -419.1"
         style="fill:#000000;fill-opacity:1;fill-rule:nonzero;stroke:none"
         id="path146"
         inkscape:connector-curvature="0" /><path
         d="m 11912.2,5074.23 c 0,18.05 14.6,32.67 32.6,32.67 18.1,0 32.7,-14.62 32.7,-32.67 0,-18.04 -14.6,-32.66 -32.7,-32.66 -18,0 -32.6,14.62 -32.6,32.66"
         style="fill:#000000;fill-opacity:1;fill-rule:nonzero;stroke:none"
         id="path148"
         inkscape:connector-curvature="0" /><path
         d="m 12710.6,4741.09 v 87.04 h -197 v -87.04 h -111 v -31.83 h 419.1 v 31.83 h -111.1"
         style="fill:#000000;fill-opacity:1;fill-rule:nonzero;stroke:none"
         id="path150"
         inkscape:connector-curvature="0" /><path
         d="m 12805.3,4867.99 c 0,-18.04 14.6,-32.66 32.7,-32.66 18,0 32.6,14.62 32.6,32.66 0,18.04 -14.6,32.67 -32.6,32.67 -18.1,0 -32.7,-14.63 -32.7,-32.67"
         style="fill:#000000;fill-opacity:1;fill-rule:nonzero;stroke:none"
         id="path152"
         inkscape:connector-curvature="0" /><path
         d="m 4036.21,923.102 -180.61,-23.5 23.44,180.698 180.61,23.4 z m 189.35,202.098 c 1.52,0.2 2.65,1.5 2.65,3 v 46.6 c 0,1.8 -1.61,3.2 -3.43,3 l -104.63,-13.6 13.58,104.62 c 0.24,1.82 -1.18,3.44 -3.01,3.44 h -46.52 c -1.53,0 -2.82,-1.14 -3.02,-2.65 l -14.58,-112.41 -180.61,-23.4 17.52,135.02 c 0.23,1.82 -1.18,3.44 -3.02,3.44 h -46.52 c -1.53,0 -2.82,-1.14 -3.01,-2.65 l -18.53,-142.71 -142.74,-18.6 c -1.52,-0.2 -2.65,-1.5 -2.65,-3 v -46.5 c 0,-1.8 1.61,-3.3 3.43,-3 l 135.01,17.5 -23.44,-180.601 -112.35,-14.597 c -1.52,-0.2 -2.65,-1.5 -2.65,-3 v -46.5 c 0,-1.903 1.61,-3.301 3.43,-3 l 104.62,13.5 -13.57,-104.602 c -0.24,-1.801 1.18,-3.398 3.01,-3.398 h 46.52 c 1.53,0 2.82,1.097 3.02,2.597 l 14.58,112.403 180.61,23.398 -17.52,-135 c -0.24,-1.801 1.18,-3.398 3.01,-3.398 h 46.53 c 1.52,0 2.81,1.097 3.01,2.597 l 18.52,142.801 142.75,18.5 c 1.52,0.199 2.65,1.5 2.65,3 v 46.5 c 0,1.902 -1.61,3.301 -3.43,3.102 L 4089.76,930 l 23.44,180.6 112.36,14.6"
         style="fill:#000000;fill-opacity:1;fill-rule:nonzero;stroke:none"
         id="path154"
         inkscape:connector-curvature="0" /><path
         d="m 13562.4,2857.43 c 0,-1.41 -2.4,-135.25 -157.1,-241.59 l -0.1,235.54 c 21,40.46 74.3,76.97 120,68.78 28.4,-5.1 39.2,-34.47 37.2,-62.73 z m -29.9,103.54 c -47,8.46 -94.2,-12.52 -127.3,-44.7 l -0.1,378.47 c 0,3.58 -2.4,6.48 -5.3,6.48 h -25.6 c -2.9,0 -5.3,-2.93 -5.3,-6.53 0,0 -0.1,-721.39 -0.1,-721.4 -0.4,-1.19 0,-3.19 0,-4.45 0,-1.64 -0.1,-3.29 -0.1,-4.93 0,-1.48 0,-2.95 0,-4.43 0,-0.91 0.1,-1.81 0.2,-2.72 0.1,-0.8 -0.1,-1.15 0.7,-1.23 3.3,-0.3 6.6,2.49 9.3,3.93 6.2,3.32 12.7,6.14 19,9.44 13.1,6.9 25.3,15.46 37.5,24.15 7.3,5.17 14.2,10.83 21.3,16.18 4.5,3.7 9,7.37 13.4,11.15 10.5,9.02 20.6,18.49 30.3,28.41 8.8,9.09 17.3,18.56 25.3,28.39 7.4,9 14.3,18.31 20.9,27.91 5.9,8.74 11.5,17.73 16.7,26.94 4.7,8.32 9.1,16.83 13.2,25.5 3.6,7.74 6.9,15.61 9.9,23.59 2.7,6.99 5.1,14.06 7.2,21.22 1.8,6.06 3.5,12.18 4.9,18.35 1.2,4.98 2.2,9.99 3,15.03 0.7,3.72 1.2,7.46 1.6,11.22 0.3,2.31 0.5,4.62 0.6,6.94 0.1,0.69 0.1,1.38 0.1,2.06 3.8,53.6 -25.5,96.79 -71.3,105.03"
         style="fill:#000000;fill-opacity:1;fill-rule:nonzero;stroke:none"
         id="path156"
         inkscape:connector-curvature="0" /><path
         d="m 13761.5,2857.43 c 0,-1.41 -2.4,-135.25 -157.1,-241.59 l -0.1,235.54 c 20.9,40.46 74.3,76.97 119.9,68.78 28.4,-5.1 39.2,-34.47 37.3,-62.73 z m -29.9,103.54 c -47.1,8.46 -94.2,-12.52 -127.3,-44.7 l -0.2,378.47 c 0,3.58 -2.4,6.48 -5.3,6.48 h -25.5 c -3,0 -5.4,-2.93 -5.3,-6.53 0,0 -0.2,-721.39 -0.2,-721.4 -0.4,-1.19 0,-3.19 0,-4.45 0,-1.64 0,-3.29 0,-4.93 0,-1.48 0,-2.95 0,-4.43 0,-0.91 0.1,-1.81 0.1,-2.72 0.1,-0.8 0,-1.15 0.8,-1.23 3.2,-0.3 6.5,2.49 9.2,3.93 6.3,3.32 12.8,6.14 19,9.44 13.1,6.9 25.3,15.46 37.6,24.15 7.3,5.17 14.1,10.83 21.2,16.18 4.5,3.7 9,7.37 13.4,11.15 10.5,9.02 20.7,18.49 30.3,28.41 8.9,9.09 17.4,18.56 25.4,28.39 7.3,9 14.3,18.31 20.8,27.91 6,8.74 11.6,17.73 16.8,26.94 4.7,8.32 9.1,16.83 13.1,25.5 3.6,7.74 6.9,15.61 10,23.59 2.6,6.99 5,14.06 7.2,21.22 1.8,6.06 3.4,12.18 4.8,18.35 1.2,4.98 2.2,9.99 3.1,15.03 0.6,3.72 1.1,7.46 1.6,11.22 0.2,2.31 0.4,4.62 0.6,6.94 0,0.69 0,1.38 0.1,2.06 3.7,53.6 -25.6,96.79 -71.3,105.03"
         style="fill:#000000;fill-opacity:1;fill-rule:nonzero;stroke:none"
         id="path158"
         inkscape:connector-curvature="0" /><path
         d="m 2813.08,930.699 c 0,-1.398 -2.4,-135.199 -157.1,-241.597 l -0.08,235.597 c 20.92,40.403 74.28,77.001 119.95,68.801 28.36,-5.098 39.17,-34.5 37.23,-62.801 z M 2783.2,1034.3 c -47.08,8.4 -94.2,-12.5 -127.32,-44.698 l -0.15,378.448 c 0,3.57 -2.37,6.47 -5.29,6.47 h -25.56 c -2.94,0 -5.31,-2.93 -5.29,-6.53 l -0.16,-721.388 c -0.39,-1.2 -0.01,-3.204 -0.01,-4.5 -0.01,-1.602 -0.01,-3.2 -0.02,-4.903 0,-1.5 0,-2.898 0,-4.398 0.01,-0.903 0.1,-1.801 0.17,-2.699 0.06,-0.801 -0.08,-1.2 0.71,-1.301 3.26,-0.301 6.53,2.5 9.26,4 6.26,3.301 12.76,6.101 19.02,9.398 13.09,6.903 25.29,15.5 37.53,24.203 7.28,5.098 14.14,10.797 21.27,16.098 4.48,3.699 8.99,7.402 13.4,11.199 10.5,9 20.62,18.5 30.29,28.403 8.85,9.097 17.32,18.597 25.34,28.398 7.34,9 14.3,18.301 20.83,27.898 5.96,8.704 11.56,17.704 16.77,26.903 4.7,8.398 9.09,16.898 13.13,25.5 3.6,7.801 6.93,15.601 9.95,23.597 2.64,7.004 5.05,14.102 7.2,21.204 1.82,6.097 3.46,12.199 4.89,18.398 1.15,5 2.17,10 3.03,15 0.63,3.699 1.17,7.5 1.59,11.199 0.26,2.403 0.49,4.703 0.62,7 0.03,0.703 0.02,1.403 0.07,2 3.79,53.602 -25.54,96.801 -71.27,105.101"
         style="fill:#000000;fill-opacity:1;fill-rule:nonzero;stroke:none"
         id="path160"
         inkscape:connector-curvature="0" /><path
         d="M 6429.49,895.898 V 1048.2 c 0,1.5 0.94,2.7 2.32,3.2 l 188.99,59.1 c 2.13,0.7 4.29,-0.9 4.29,-3.1 V 955.102 c 0,-1.403 -0.94,-2.7 -2.32,-3.102 l -188.99,-59.199 c -2.12,-0.699 -4.29,0.898 -4.29,3.097 z m 0,202.702 v 218.86 c 0,1.82 -1.48,3.3 -3.3,3.3 h -34.85 c -1.82,0 -3.3,-1.48 -3.3,-3.3 V 839.5 c 0,-2.199 2.16,-3.801 4.29,-3.098 l 228.47,71.5 c 2.13,0.7 4.29,-0.902 4.29,-3.101 V 685.898 c 0,-1.796 1.48,-3.296 3.31,-3.296 h 34.84 c 1.83,0 3.31,1.5 3.31,3.296 V 1163.8 c 0,2.2 -2.17,3.8 -4.29,3.2 l -228.48,-71.6 c -2.12,-0.7 -4.29,0.9 -4.29,3.2"
         style="fill:#000000;fill-opacity:1;fill-rule:nonzero;stroke:none"
         id="path162"
         inkscape:connector-curvature="0" /><path
         d="m 5145.77,1194.6 -120.34,51.95 c -19.2,2.58 -14.84,-15.93 -11.53,-25.18 v 0 0 c 0.93,-2.57 1.78,-4.47 1.99,-4.97 l 41.07,-102 c 0,0 16.28,-57.5 73.96,-66.6 0,0 27.63,-7.4 61.56,-32.3 18.37,-14.9 33.01,-29 34.91,-30.898 0.71,-0.7 1.43,-1.5 2.14,-2.2 l -1.26,1.399 20.8,-20.199 35.73,34.597 -17.93,19.501 c -50.42,49.9 -62.12,100.7 -62.12,100.7 -7.18,58 -58.98,76.2 -58.98,76.2"
         style="fill:#000000;fill-opacity:1;fill-rule:nonzero;stroke:none"
         id="path164"
         inkscape:connector-curvature="0" /><path
         d="m 5344.41,1194.6 120.34,51.95 c 19.2,2.58 14.84,-15.93 11.54,-25.18 v 0 0 c -0.93,-2.57 -1.78,-4.47 -1.99,-4.97 l -41.07,-102 c 0,0 -16.28,-57.5 -73.96,-66.6 0,0 -27.64,-7.4 -61.57,-32.3 -18.36,-14.9 -33.01,-29 -34.9,-30.898 -0.72,-0.7 -1.43,-1.5 -2.14,-2.2 l 1.26,1.399 -20.8,-20.199 -35.73,34.597 17.92,19.501 c 50.43,49.9 62.13,100.7 62.13,100.7 7.18,58 58.97,76.2 58.97,76.2"
         style="fill:#000000;fill-opacity:1;fill-rule:nonzero;stroke:none"
         id="path166"
         inkscape:connector-curvature="0" /><path
         d="m 5145.77,808.699 -120.34,-51.898 c -19.2,-2.602 -14.84,15.898 -11.53,25.199 v 0 0 c 0.93,2.602 1.78,4.5 1.99,4.898 L 5056.96,889 c 0,0 16.28,57.5 73.96,66.602 0,0 27.63,7.3 61.56,32.296 18.37,14.802 33.01,29.002 34.91,30.802 0.71,0.8 1.43,1.5 2.14,2.3 l -1.26,-1.4 20.8,20.2 35.73,-34.7 -17.93,-19.498 c -50.42,-49.903 -62.12,-100.7 -62.12,-100.7 -7.18,-57.902 -58.98,-76.203 -58.98,-76.203"
         style="fill:#000000;fill-opacity:1;fill-rule:nonzero;stroke:none"
         id="path168"
         inkscape:connector-curvature="0" /><path
         d="m 5344.41,808.699 120.34,-51.898 c 19.2,-2.602 14.84,15.898 11.54,25.199 v 0 0 c -0.93,2.602 -1.78,4.5 -1.99,4.898 L 5433.23,889 c 0,0 -16.28,57.5 -73.96,66.602 0,0 -27.64,7.3 -61.57,32.296 -18.36,14.802 -33.01,29.002 -34.9,30.802 -0.72,0.8 -1.43,1.5 -2.14,2.3 l 1.26,-1.4 -20.8,20.2 -35.73,-34.7 17.92,-19.498 c 50.43,-49.903 62.13,-100.7 62.13,-100.7 7.18,-57.902 58.97,-76.203 58.97,-76.203"
         style="fill:#000000;fill-opacity:1;fill-rule:nonzero;stroke:none"
         id="path170"
         inkscape:connector-curvature="0" /><path
         d="m 7666.97,1083.9 c 0,21 17.05,38.1 38.09,38.1 21.04,0 38.1,-17.1 38.1,-38.1 0,-21.1 -17.06,-38.1 -38.1,-38.1 -21.04,0 -38.09,17 -38.09,38.1"
         style="fill:#000000;fill-opacity:1;fill-rule:nonzero;stroke:none"
         id="path172"
         inkscape:connector-curvature="0" /><path
         d="m 7666.97,919.5 c 0,21 17.05,38.102 38.09,38.102 21.04,0 38.1,-17.102 38.1,-38.102 0,-21.102 -17.06,-38.098 -38.1,-38.098 -21.04,0 -38.09,16.996 -38.09,38.098"
         style="fill:#000000;fill-opacity:1;fill-rule:nonzero;stroke:none"
         id="path174"
         inkscape:connector-curvature="0" /><path
         d="m 7564.05,702.699 h -89.1 c -0.38,0 -0.69,0.301 -0.69,0.699 v 596.522 c 0,0.38 0.31,0.69 0.69,0.69 h 89.1 c 0.39,0 0.7,-0.31 0.7,-0.69 V 703.398 c 0,-0.398 -0.31,-0.699 -0.7,-0.699"
         style="fill:#000000;fill-opacity:1;fill-rule:nonzero;stroke:none"
         id="path176"
         inkscape:connector-curvature="0" /><path
         d="m 7628.23,702.699 h -24.04 c -0.36,0 -0.66,0.301 -0.66,0.699 v 596.552 c 0,0.37 0.3,0.66 0.66,0.66 h 24.04 c 0.36,0 0.66,-0.29 0.66,-0.66 V 703.398 c 0,-0.398 -0.3,-0.699 -0.66,-0.699"
         style="fill:#000000;fill-opacity:1;fill-rule:nonzero;stroke:none"
         id="path178"
         inkscape:connector-curvature="0" /><path
         d="m 8486.75,1083.9 c 0,21 -17.05,38.1 -38.09,38.1 -21.05,0 -38.1,-17.1 -38.1,-38.1 0,-21.1 17.05,-38.1 38.1,-38.1 21.04,0 38.09,17 38.09,38.1"
         style="fill:#000000;fill-opacity:1;fill-rule:nonzero;stroke:none"
         id="path180"
         inkscape:connector-curvature="0" /><path
         d="m 8486.75,919.5 c 0,21 -17.05,38.102 -38.09,38.102 -21.05,0 -38.1,-17.102 -38.1,-38.102 0,-21.102 17.05,-38.098 38.1,-38.098 21.04,0 38.09,16.996 38.09,38.098"
         style="fill:#000000;fill-opacity:1;fill-rule:nonzero;stroke:none"
         id="path182"
         inkscape:connector-curvature="0" /><path
         d="m 8589.67,702.699 h 89.1 c 0.38,0 0.69,0.301 0.69,0.699 v 596.522 c 0,0.38 -0.31,0.69 -0.69,0.69 h -89.1 c -0.39,0 -0.7,-0.31 -0.7,-0.69 V 703.398 c 0,-0.398 0.31,-0.699 0.7,-0.699"
         style="fill:#000000;fill-opacity:1;fill-rule:nonzero;stroke:none"
         id="path184"
         inkscape:connector-curvature="0" /><path
         d="m 8525.49,702.699 h 24.04 c 0.36,0 0.66,0.301 0.66,0.699 v 596.552 c 0,0.37 -0.3,0.66 -0.66,0.66 h -24.04 c -0.36,0 -0.66,-0.29 -0.66,-0.66 V 703.398 c 0,-0.398 0.3,-0.699 0.66,-0.699"
         style="fill:#000000;fill-opacity:1;fill-rule:nonzero;stroke:none"
         id="path186"
         inkscape:connector-curvature="0" /><path
         d="m 9495.46,1083.9 c 0,21 -17.06,38.1 -38.1,38.1 -21.04,0 -38.1,-17.1 -38.1,-38.1 0,-21.1 17.06,-38.1 38.1,-38.1 21.04,0 38.1,17 38.1,38.1"
         style="fill:#000000;fill-opacity:1;fill-rule:nonzero;stroke:none"
         id="path188"
         inkscape:connector-curvature="0" /><path
         d="m 9495.46,919.5 c 0,21 -17.06,38.102 -38.1,38.102 -21.04,0 -38.1,-17.102 -38.1,-38.102 0,-21.102 17.06,-38.098 38.1,-38.098 21.04,0 38.1,16.996 38.1,38.098"
         style="fill:#000000;fill-opacity:1;fill-rule:nonzero;stroke:none"
         id="path190"
         inkscape:connector-curvature="0" /><path
         d="m 10382.1,894.902 c 0,20.996 -17,38.098 -38.1,38.098 -21,0 -38.1,-17.102 -38.1,-38.098 0,-21.101 17.1,-38.101 38.1,-38.101 21.1,0 38.1,17 38.1,38.101"
         style="fill:#000000;fill-opacity:1;fill-rule:nonzero;stroke:none"
         id="path192"
         inkscape:connector-curvature="0" /><path
         d="m 10344,1146.6 c -5.9,0 -11.9,-0.4 -17.8,-1.2 -5.9,-0.8 -11.7,-2 -17.4,-3.5 -5.8,-1.5 -11.4,-3.4 -16.9,-5.5 -5.6,-2.2 -11,-4.8 -16.3,-7.5 -5.3,-2.9 -10.5,-6 -15.6,-9.3 -5.1,-3.5 -10,-7.1 -14.8,-11 -4.9,-3.9 -9.5,-8 -14,-12.4 -4.6,-4.4 -9,-8.9 -13.2,-13.7 -4.2,-4.8 -8.3,-9.7 -12.2,-14.8 -3.9,-5.2 -7.6,-10.4 -11.1,-15.9 -3.6,-5.4 -6.9,-11 -10.1,-16.6 -3.2,-5.7 -6.1,-11.5 -8.9,-17.4 -2.8,-5.8 -5.3,-11.8 -7.7,-17.8 -2.3,-6 -4.4,-12 -6.4,-18.199 -1.8,-6 -3.5,-12.199 -5,-18.403 -1.4,-6.097 -2.6,-12.199 -3.5,-18.398 -0.9,-6 -1.6,-12.098 -2.1,-18.199 -0.2,-2.801 -0.4,-5.602 -0.5,-8.301 -0.1,-2.398 -0.5,-5.398 1.2,-7.301 0.6,-0.699 1.3,-1.297 1.9,-1.801 1.7,-1.398 3.8,-2.5 6,-2.699 1.6,-0.097 3.3,0.199 4.7,1 1,0.5 1.8,1.203 2.6,1.903 0.4,0.398 0.9,0.898 1.3,1.296 2.7,3.102 1.5,7.704 1.8,11.403 0.2,3.101 0.5,6.199 0.9,9.199 0.9,6.102 2.1,12 3.7,18 1.6,6 3.5,12 5.8,17.902 2.2,6.098 4.8,11.996 7.7,17.797 2.9,6 6,11.801 9.4,17.401 3.4,5.8 7.1,11.4 11,16.8 3.9,5.5 8,10.8 12.3,15.9 4.3,5.2 8.9,10.1 13.6,14.9 4.6,4.7 9.4,9.2 14.5,13.5 4.9,4.3 10,8.3 15.3,12 5.1,3.7 10.4,7.2 15.9,10.3 5.3,3.1 10.8,5.9 16.4,8.3 5.4,2.4 10.9,4.4 16.6,6.1 5.4,1.6 11,2.9 16.6,3.7 4.8,0.6 9.5,1 14.3,1 9.6,0 19.2,-1.4 28.4,-3.9 9.8,-2.7 19.2,-6.6 28.2,-11.2 9.6,-4.9 18.7,-10.7 27.3,-17.2 9,-6.7 17.4,-14.1 25.3,-22.1 8.1,-8.1 15.6,-16.8 22.5,-26 6.8,-9.1 13.1,-18.6 18.7,-28.598 5.4,-9.7 10.1,-19.801 13.9,-30.204 3.7,-10 6.6,-20.199 8.3,-30.699 0.7,-3.699 1.1,-7.5 1.4,-11.297 0.2,-2.902 0.4,-5.703 0.3,-8.601 0,-2.899 1.3,-4 3.5,-5.5 1.7,-1.102 3.6,-2 5.6,-2.199 2,-0.2 4,0.3 5.7,1.199 1.3,0.699 2.8,1.5 3.7,2.601 1.4,1.899 0.7,4.598 0.6,6.7 -0.1,4 -0.3,8 -0.6,11.898 -0.3,2.699 -0.5,5.301 -0.8,8 -0.3,2.5 -1.1,5.199 -1.1,7.602 -1.6,10.699 -4,21.097 -7,31.5 -3.1,10.5 -6.8,20.796 -11.1,30.898 -4.3,10.2 -9.3,20.2 -14.8,29.8 -5.5,9.6 -11.5,18.9 -18.1,27.7 -6.5,8.8 -13.6,17.1 -21.2,25 -7.4,7.6 -15.3,14.8 -23.8,21.3 -8.2,6.3 -17,12 -26.1,16.9 -9,4.8 -18.4,8.7 -28.1,11.7 -9.7,3 -19.7,4.9 -29.8,5.7 -3.6,0.3 -7.2,0.5 -10.9,0.5"
         style="fill:#000000;fill-opacity:1;fill-rule:nonzero;stroke:none"
         id="path194"
         inkscape:connector-curvature="0" /><path
         d="m 11252.9,1108.5 c 0,-21.1 -17,-38.1 -38.1,-38.1 -21,0 -38.1,17 -38.1,38.1 0,21 17.1,38.1 38.1,38.1 21.1,0 38.1,-17.1 38.1,-38.1"
         style="fill:#000000;fill-opacity:1;fill-rule:nonzero;stroke:none"
         id="path196"
         inkscape:connector-curvature="0" /><path
         d="m 11214.8,856.801 c -5.9,0 -11.9,0.398 -17.8,1.199 -5.9,0.699 -11.7,1.902 -17.4,3.402 -5.8,1.5 -11.4,3.399 -16.9,5.598 -5.6,2.199 -11,4.699 -16.3,7.5 -5.3,2.801 -10.5,5.902 -15.6,9.301 -5.1,3.398 -10,7 -14.8,10.898 -4.9,3.903 -9.5,8.102 -14,12.403 -4.6,4.398 -9,9 -13.2,13.699 -4.2,4.801 -8.3,9.801 -12.2,14.898 -3.9,5.102 -7.6,10.403 -11.1,15.801 -3.6,5.398 -6.9,11 -10.1,16.699 -3.2,5.602 -6.1,11.403 -8.9,17.301 -2.8,5.801 -5.3,11.801 -7.7,17.8 -2.3,6 -4.5,12.1 -6.4,18.2 -1.8,6.1 -3.5,12.2 -5,18.4 -1.4,6.1 -2.6,12.2 -3.5,18.4 -0.9,6.1 -1.6,12.2 -2.1,18.3 -0.2,2.7 -0.4,5.5 -0.5,8.3 -0.1,2.4 -0.5,5.4 1.2,7.3 0.6,0.6 1.3,1.2 1.9,1.8 1.7,1.4 3.7,2.4 5.9,2.6 1.7,0.2 3.4,-0.2 4.8,-1 1,-0.5 1.8,-1.1 2.6,-1.9 0.4,-0.4 0.9,-0.8 1.3,-1.3 2.7,-3.1 1.5,-7.7 1.8,-11.4 0.2,-3.1 0.5,-6.1 0.9,-9.2 0.9,-6 2.1,-12 3.7,-17.9 1.6,-6.1 3.5,-12.1 5.8,-18 2.2,-6 4.8,-12 7.7,-17.8 2.9,-5.9 6,-11.7 9.4,-17.4 3.4,-5.7 7.1,-11.298 11,-16.798 3.9,-5.402 8,-10.8 12.3,-15.902 4.3,-5.098 8.9,-10.098 13.6,-14.801 4.6,-4.801 9.4,-9.297 14.5,-13.597 4.9,-4.2 10,-8.2 15.3,-12 5.1,-3.7 10.4,-7.102 15.9,-10.301 5.3,-3 10.8,-5.801 16.4,-8.301 5.4,-2.301 10.9,-4.398 16.6,-6.098 5.4,-1.601 11,-2.8 16.6,-3.601 4.8,-0.699 9.5,-1.102 14.3,-1.102 9.6,0 19.2,1.5 28.4,4 9.8,2.602 19.2,6.5 28.2,11.102 9.6,4.898 18.7,10.801 27.3,17.199 9,6.801 17.4,14.199 25.3,22.102 8.1,8.199 15.6,16.796 22.5,26 6.8,9.097 13.1,18.699 18.7,28.598 5.4,9.7 10.1,19.8 13.9,30.2 3.7,10 6.6,20.3 8.3,30.7 0.7,3.8 1.1,7.6 1.4,11.4 0.2,2.9 0.4,5.7 0.3,8.6 0,2.8 1.3,3.9 3.5,5.4 1.7,1.2 3.6,2 5.6,2.2 2,0.2 4,-0.2 5.7,-1.2 1.3,-0.7 2.8,-1.4 3.7,-2.6 1.4,-1.8 0.7,-4.5 0.6,-6.7 -0.1,-3.9 -0.3,-7.9 -0.6,-11.9 -0.3,-2.6 -0.5,-5.3 -0.8,-7.9 -0.3,-2.5 -1.1,-5.2 -1.1,-7.7 -1.6,-10.6 -4,-21.1 -7,-31.4 -3.1,-10.6 -6.8,-20.9 -11.1,-30.999 -4.3,-10.199 -9.3,-20.102 -14.8,-29.801 -5.5,-9.5 -11.5,-18.801 -18.1,-27.699 -6.5,-8.699 -13.6,-17.102 -21.2,-24.899 -7.4,-7.703 -15.3,-14.8 -23.8,-21.3 -8.2,-6.403 -17,-12.102 -26.1,-17 -9,-4.7 -18.4,-8.704 -28.2,-11.7 -9.6,-2.902 -19.6,-4.902 -29.7,-5.703 -3.6,-0.301 -7.2,-0.398 -10.9,-0.398"
         style="fill:#000000;fill-opacity:1;fill-rule:nonzero;stroke:none"
         id="path198"
         inkscape:connector-curvature="0" /><path
         d="m 12244.2,847.602 -349,148.5 c -4.3,1.796 -4.3,7.898 0,9.698 l 352.5,150.1 v -45.2 l -246.6,-104.9 c -4.3,-1.8 -4.3,-7.902 0,-9.698 l 245.1,-104.204 c 0.9,-0.398 1.5,-1.398 1.5,-2.398 v -39.598 c 0,-1.8 -1.8,-3.004 -3.5,-2.3"
         style="fill:#000000;fill-opacity:1;fill-rule:nonzero;stroke:none"
         id="path200"
         inkscape:connector-curvature="0" /><path
         d="m 12640.1,847.602 349,148.5 c 4.2,1.796 4.2,7.898 0,9.698 l -352.5,150.1 v -45.2 l 246.6,-104.9 c 4.3,-1.8 4.3,-7.902 0,-9.698 l -245.1,-104.204 c -0.9,-0.398 -1.5,-1.398 -1.5,-2.398 v -39.598 c 0,-1.8 1.8,-3.004 3.5,-2.3"
         style="fill:#000000;fill-opacity:1;fill-rule:nonzero;stroke:none"
         id="path202"
         inkscape:connector-curvature="0" /><path
         d="m 13961.4,1127.3 c 0,21 -17.1,38.1 -38.1,38.1 -21,0 -38.1,-17.1 -38.1,-38.1 0,-21.1 17.1,-38.1 38.1,-38.1 21,0 38.1,17 38.1,38.1"
         style="fill:#000000;fill-opacity:1;fill-rule:nonzero;stroke:none"
         id="path204"
         inkscape:connector-curvature="0" /><path
         d="m 13961.4,962.902 c 0,21 -17.1,37.998 -38.1,37.998 -21,0 -38.1,-16.998 -38.1,-37.998 0,-21.101 17.1,-38.101 38.1,-38.101 21,0 38.1,17 38.1,38.101"
         style="fill:#000000;fill-opacity:1;fill-rule:nonzero;stroke:none"
         id="path206"
         inkscape:connector-curvature="0" /><path
         d="m 13792,1154.2 c -24.6,27.3 -54.4,43.9 -86.4,51.1 -6.9,1.6 -17.6,2.9 -26.9,2.8 -0.2,0 -0.5,0 -0.7,0 h -0.1 c -2.8,0.1 -5.7,-0.3 -8.5,-0.6 -0.1,0 -0.1,0 -0.2,0 v 0 c -0.6,-0.1 -1.2,-0.1 -1.8,-0.2 -8.6,-1 -17.2,-2.5 -25.5,-4.7 -2,-0.5 -3.9,-1.1 -5.8,-1.7 -4.9,-1.5 -9.8,-3.3 -14.5,-5.3 -35.6,-15 -71.4,-45.4 -83.8,-101.6 0,0 -5.9,-32.2 20.1,-57.7 15.9,-16.3 40.8,-22.2 63.1,-12.8 29.2,12.3 42.9,46 30.6,75.2 -8.9,21 -28.9,33.8 -50.2,34.8 9.8,10.1 21.8,17.8 34.8,23.3 10.3,4.4 21.2,7.4 32.2,9.1 1.2,0.2 2.4,0.3 3.6,0.4 62,0 110,-71.9 103.3,-130.4 -1.4,-12.4 -3.7,-24.8 -6.8,-36.9 -12.8,-51.098 -36.4,-101 -74,-138.199 -12.8,-12.801 -27.9,-21.301 -43.9,-28.903 -7.3,-3.398 -14.9,-6.496 -21.9,-10.699 -9.5,-5.699 -18.1,-23.199 -1.2,-25.797 3.2,-0.5 6.5,0 9.6,0.899 20.1,5.699 38.4,16.199 55.5,28 5.3,3.699 10.6,7.5 15.7,11.398 60.1,46.199 108.8,113.5 117,190.401 5,45.8 -1.3,92.5 -33.3,128.1"
         style="fill:#000000;fill-opacity:1;fill-rule:nonzero;stroke:none"
         id="path208"
         inkscape:connector-curvature="0" /><path
         d="m 13576.2,4609.3 h -114.5 c -0.4,0 -0.7,0.31 -0.7,0.69 v 764.26 c 0,0.38 0.3,0.69 0.7,0.69 h 114.5 c 0.4,0 0.7,-0.31 0.7,-0.69 v -764.26 c 0,-0.38 -0.3,-0.69 -0.7,-0.69"
         style="fill:#000000;fill-opacity:1;fill-rule:nonzero;stroke:none"
         id="path210"
         inkscape:connector-curvature="0" /><path
         d="m 13658.3,4609.3 h -31.1 c -0.4,0 -0.7,0.29 -0.7,0.66 v 764.32 c 0,0.37 0.3,0.66 0.7,0.66 h 31.1 c 0.4,0 0.7,-0.29 0.7,-0.66 v -764.32 c 0,-0.37 -0.3,-0.66 -0.7,-0.66"
         style="fill:#000000;fill-opacity:1;fill-rule:nonzero;stroke:none"
         id="path212"
         inkscape:connector-curvature="0" /><path
         d="m 13901.8,4948.88 c -35.7,29.04 -89.3,37.55 -128.8,13.69 -8.8,-5.29 -18.7,-14.19 -28.1,-4.8 -4.3,4.28 -7,10.26 -9.3,16.19 -4.5,21.2 0,36.31 0,36.31 2.3,5.94 5,11.92 9.3,16.19 9.4,9.4 19.3,0.5 28.1,-4.79 39.5,-23.86 93.1,-15.35 128.8,13.69 81.8,66.63 78.3,204.87 14,284.8 -25.8,32.16 -60.9,53.27 -102.3,52.73 -39.2,-0.52 -84.5,-17.47 -117.6,-72.43 0,0 -17.9,-32.07 -3.3,-70.73 8.8,-24.48 29.9,-41.65 54.5,-41.33 32.1,0.42 57.9,30.54 57.5,67.26 -0.2,26.48 -14.1,48.98 -33.9,59.42 18.2,8.92 38.2,11.34 57.7,8.97 15.3,-1.86 30.9,-3.48 40.5,-18.59 24.8,-38.98 30.5,-92.93 27.5,-139.92 -2.5,-39.54 -13.9,-86.77 -49.7,-102.36 -1.8,-0.75 -3.5,-1.41 -5.3,-2 -36.9,-12.06 -84.1,3.1 -91.6,51.51 -0.9,5.52 -2.2,12.55 -7,13.5 -3,0.6 -6,-1.95 -7.4,-5.1 -1.4,-3.15 -1.7,-6.79 -1.9,-10.32 -1.7,-20.9 -7.1,-42.37 -20.1,-57.9 -7.9,-9.37 -17.1,-14.28 -28.3,-14.47 -3.8,-0.06 -24.3,3.52 -26.1,-1.62 0,-0.02 0,-13.07 0,-20.82 0,-3.23 0,-5.64 0,-5.64 v -36.4 c 0,0 0,-2.35 0,-5.53 0,-7.74 0,-20.91 0,-20.93 1.8,-5.15 22.3,-1.56 26.1,-1.62 11.2,-0.19 20.4,-5.11 28.3,-14.47 13,-15.53 18.4,-37.01 20.1,-57.9 0.2,-3.53 0.5,-7.17 1.9,-10.32 1.4,-3.15 4.4,-5.7 7.4,-5.1 4.8,0.94 6.1,7.98 7,13.5 7.5,48.41 54.7,63.56 91.6,51.5 1.8,-0.58 3.5,-1.24 5.3,-1.99 35.8,-15.59 47.2,-62.82 49.7,-102.36 3,-46.99 -2.7,-100.94 -27.5,-139.92 -9.6,-15.11 -25.2,-16.73 -40.5,-18.59 -19.5,-2.37 -39.5,0.05 -57.7,8.97 19.8,10.44 33.7,32.94 33.9,59.42 0.4,36.72 -25.4,66.84 -57.5,67.26 -24.6,0.32 -45.7,-16.85 -54.5,-41.33 -14.6,-38.66 3.3,-70.73 3.3,-70.73 33.1,-54.96 78.4,-71.91 117.6,-72.43 41.4,-0.54 76.5,20.57 102.3,52.73 64.3,79.93 67.8,218.17 -14,284.8"
         style="fill:#000000;fill-opacity:1;fill-rule:nonzero;stroke:none"
         id="path214"
         inkscape:connector-curvature="0" /></g></g></svg>